<?xml version="1.0" standalone="no"?>
<!DOCTYPE svg PUBLIC "-//W3C//DTD SVG 20010904//EN"
 "http://www.w3.org/TR/2001/REC-SVG-20010904/DTD/svg10.dtd">
<svg version="1.0" xmlns="http://www.w3.org/2000/svg"
 width="1947.000000pt" height="1947.000000pt" viewBox="0 0 1947.000000 1947.000000"
 preserveAspectRatio="xMidYMid meet">
<metadata>
Created by potrace 1.14, written by Peter Selinger 2001-2017
</metadata>
<g transform="translate(0.000000,1947.000000) scale(0.100000,-0.100000)"
fill="#000000" stroke="none">
<path d="M8145 17709 c-131 -8 -194 -16 -345 -40 -69 -12 -136 -22 -150 -24
-14 -1 -32 -5 -40 -8 -50 -18 -193 -46 -202 -41 -6 4 -8 3 -5 -3 8 -12 -150
-56 -165 -46 -6 3 -8 2 -5 -4 3 -5 -33 -22 -81 -37 -96 -31 -257 -91 -284
-106 -10 -6 -25 -10 -33 -10 -8 0 -15 -4 -15 -10 0 -5 -7 -10 -14 -10 -8 0
-46 -15 -83 -34 -37 -18 -108 -53 -158 -76 -49 -23 -94 -49 -98 -56 -4 -8 -14
-14 -21 -14 -8 0 -37 -16 -66 -35 -29 -19 -56 -35 -61 -35 -5 0 -9 -4 -9 -10
0 -5 -5 -10 -11 -10 -12 0 -154 -101 -204 -145 -77 -68 -114 -106 -120 -125
-3 -11 -11 -20 -16 -20 -5 0 -9 -6 -9 -13 0 -7 -5 -18 -12 -25 -13 -13 -18
-33 -19 -79 -1 -35 36 -92 60 -92 8 -1 11 -4 8 -8 -10 -9 93 -42 186 -58 81
-15 426 -29 932 -39 241 -5 683 -37 755 -56 19 -5 78 -13 130 -19 184 -21 532
-106 572 -139 8 -6 27 -16 43 -22 28 -11 29 -12 10 -22 -11 -6 -24 -16 -30
-22 -12 -14 -168 -38 -515 -81 -583 -72 -1148 -204 -1550 -361 -36 -14 -92
-36 -125 -49 -1281 -504 -2589 -1631 -3522 -3035 -27 -41 -63 -95 -80 -120
-16 -25 -110 -166 -209 -315 -164 -249 -310 -463 -324 -475 -9 -9 -230 -340
-230 -346 0 -3 -11 -20 -25 -38 -14 -18 -25 -36 -25 -40 0 -4 -15 -30 -33 -59
-41 -64 -147 -275 -172 -339 -10 -26 -21 -46 -24 -44 -4 3 -7 -3 -8 -12 -1 -9
-19 -69 -42 -132 -69 -196 -131 -441 -147 -575 -3 -22 -7 -53 -9 -70 -18 -121
-24 -397 -12 -570 7 -87 27 -251 46 -365 31 -182 41 -239 50 -270 5 -19 12
-51 15 -70 3 -19 10 -52 15 -72 5 -21 6 -38 2 -38 -3 0 -1 -4 5 -8 8 -5 40
-118 50 -178 1 -6 10 -38 19 -70 9 -33 19 -68 21 -79 18 -94 234 -773 263
-825 4 -8 16 -42 26 -75 10 -33 22 -64 26 -70 4 -5 16 -35 27 -65 28 -77 78
-196 106 -255 39 -80 86 -185 86 -191 0 -5 31 -72 114 -244 183 -380 393 -666
646 -880 36 -30 76 -65 89 -77 13 -13 27 -23 30 -23 8 0 102 -71 181 -138 72
-62 183 -190 174 -203 -3 -5 -1 -9 5 -9 16 0 103 -139 95 -152 -4 -7 -3 -8 5
-4 6 4 14 0 18 -11 4 -10 9 -20 12 -23 14 -12 281 -540 273 -540 -3 0 2 -8 10
-17 8 -10 34 -61 59 -113 52 -112 119 -244 191 -378 53 -100 186 -323 198
-332 3 -3 17 -23 30 -45 26 -43 172 -237 203 -270 10 -11 45 -51 78 -90 54
-65 297 -308 364 -365 17 -14 57 -47 90 -75 33 -27 65 -55 70 -61 6 -6 46 -40
90 -75 44 -35 91 -74 105 -87 14 -12 28 -22 31 -22 3 0 49 -33 102 -72 118
-90 145 -109 227 -160 36 -22 76 -48 90 -58 14 -10 43 -27 65 -39 22 -12 47
-26 55 -31 8 -5 45 -27 83 -48 37 -21 64 -42 60 -47 -5 -4 -3 -5 3 -2 6 3 82
-29 170 -72 320 -157 510 -229 784 -299 100 -26 156 -37 340 -67 66 -11 475
-14 560 -4 286 33 364 43 535 70 260 40 395 67 605 119 69 17 157 37 195 45
39 8 97 21 130 30 156 38 570 100 860 129 33 4 96 11 140 16 44 6 211 24 370
41 1108 116 1945 272 2795 520 848 248 1538 549 2070 903 325 215 589 435 866
717 294 300 503 573 731 954 399 667 645 1408 753 2265 5 41 14 111 20 155 48
359 72 963 51 1245 -36 470 -123 868 -296 1345 -101 279 -210 498 -378 759
-47 74 -159 193 -177 188 -6 -1 -10 2 -10 8 0 5 -6 10 -14 10 -8 0 -16 5 -18
10 -4 13 -117 23 -132 11 -6 -5 -25 -12 -42 -15 -17 -4 -42 -17 -55 -29 -12
-12 -34 -22 -47 -23 -13 0 -27 -6 -30 -11 -21 -32 -154 -66 -185 -46 -6 4 -14
8 -17 8 -25 4 -50 19 -50 32 0 9 -3 14 -6 10 -7 -7 -54 38 -54 53 0 5 -4 10
-10 10 -5 0 -10 9 -10 20 0 11 -3 20 -8 20 -23 0 -86 268 -117 500 -8 58 -21
150 -30 205 -9 55 -23 145 -31 200 -94 622 -310 1233 -650 1841 -365 656 -811
1192 -1371 1651 -192 157 -348 268 -599 425 -459 288 -882 481 -1474 674 -274
89 -976 299 -1100 329 -8 2 -118 32 -245 68 -338 96 -610 169 -710 192 -41 10
-242 56 -300 70 -258 61 -814 154 -1015 170 -261 21 -358 26 -510 28 -96 1
-220 -1 -275 -4z m3875 -1464 c6 3 10 0 10 -7 0 -8 3 -9 8 -3 13 19 35 17 28
-2 -6 -14 -4 -15 5 -6 8 8 19 8 40 1 16 -5 36 -7 45 -4 8 3 28 -1 45 -9 16 -9
29 -13 29 -11 0 3 20 -3 45 -14 25 -11 45 -17 45 -14 0 2 14 -3 32 -12 17 -9
45 -18 62 -19 17 -2 79 -24 138 -49 59 -25 111 -46 116 -46 8 0 142 -55 195
-80 15 -7 27 -18 27 -23 0 -6 3 -7 7 -4 3 4 12 2 20 -4 7 -6 13 -8 13 -4 0 8
238 -116 298 -156 24 -16 47 -29 52 -29 4 0 10 -5 12 -12 2 -6 11 -12 19 -14
13 -2 160 -98 266 -173 23 -16 43 -28 45 -25 3 2 17 -10 33 -26 16 -17 33 -30
38 -30 6 0 34 -22 63 -50 29 -27 59 -50 68 -50 8 0 27 -15 41 -32 15 -18 24
-27 20 -19 -5 8 50 -37 121 -99 164 -143 469 -452 544 -551 19 -25 64 -78 99
-118 36 -39 72 -82 80 -95 9 -13 37 -48 63 -77 46 -53 69 -83 125 -164 15 -22
33 -44 40 -48 7 -4 13 -14 13 -21 0 -7 9 -21 20 -31 11 -10 20 -24 20 -31 0
-7 16 -29 35 -50 19 -20 32 -40 30 -44 -3 -5 -2 -10 3 -12 4 -1 30 -41 56 -88
27 -47 54 -92 61 -100 7 -8 25 -40 41 -70 15 -30 32 -58 37 -61 6 -4 10 -20
11 -37 0 -17 4 -28 9 -25 4 2 7 -1 7 -7 0 -6 5 -8 10 -5 6 4 9 3 8 -2 -4 -13
23 -73 33 -73 5 0 9 -5 9 -10 0 -6 14 -40 30 -75 17 -35 30 -69 30 -75 0 -5 5
-10 11 -10 5 0 7 -4 4 -10 -3 -5 -1 -10 4 -10 6 0 11 -7 11 -16 0 -16 20 -67
46 -116 8 -14 14 -31 14 -38 0 -12 31 -88 55 -133 8 -16 15 -35 15 -43 0 -8
15 -63 34 -122 37 -114 86 -302 86 -328 0 -9 6 -30 14 -47 8 -18 17 -54 20
-82 2 -27 9 -72 15 -100 17 -82 32 -184 41 -285 6 -52 12 -124 16 -160 3 -36
7 -97 8 -137 0 -39 4 -69 8 -67 4 3 5 -1 3 -8 -3 -8 -7 -95 -9 -194 -3 -203
-18 -344 -67 -644 -28 -177 -46 -271 -57 -315 -23 -87 -42 -253 -38 -330 6
-102 24 -187 38 -179 7 4 8 2 4 -4 -8 -13 34 -82 60 -99 63 -42 92 -59 114
-69 61 -29 99 -44 106 -44 4 0 32 -12 61 -26 30 -14 63 -26 74 -27 10 -1 19
-5 19 -9 0 -4 3 -7 8 -6 4 1 33 -10 64 -25 31 -15 60 -27 63 -27 4 0 19 -8 33
-18 15 -10 47 -27 72 -37 25 -11 65 -35 90 -53 49 -37 63 -50 41 -37 -10 5
-12 4 -7 -4 4 -6 11 -9 16 -6 10 6 51 -12 60 -25 3 -4 21 -18 40 -31 63 -44
89 -67 168 -151 23 -25 42 -50 42 -54 0 -4 7 -14 15 -23 37 -39 95 -117 95
-127 0 -7 6 -14 14 -17 8 -3 26 -32 41 -64 15 -32 31 -60 35 -63 13 -10 40
-92 34 -102 -4 -7 -2 -8 4 -4 13 8 14 6 67 -131 33 -84 48 -139 76 -273 5 -25
16 -115 25 -200 12 -126 13 -189 4 -341 -5 -102 -14 -210 -20 -240 -5 -30 -16
-94 -25 -144 -8 -49 -19 -106 -24 -125 -48 -189 -123 -430 -132 -424 -4 2 -5
-6 -1 -18 4 -16 2 -19 -8 -13 -9 5 -11 4 -6 -3 7 -12 -29 -128 -46 -146 -4 -6
-8 -18 -8 -27 0 -9 -18 -56 -40 -104 -22 -48 -40 -91 -40 -95 0 -14 -142 -295
-209 -415 -76 -136 -172 -286 -217 -342 -19 -23 -34 -46 -34 -51 0 -6 -3 -12
-8 -14 -4 -1 -41 -48 -82 -103 -66 -90 -113 -146 -245 -295 -74 -84 -329 -330
-435 -420 -41 -35 -77 -66 -80 -70 -3 -4 -13 -6 -22 -5 -9 2 -15 -2 -12 -9 4
-12 -28 -38 -149 -123 -33 -23 -63 -46 -66 -51 -3 -5 -19 -16 -36 -25 -16 -8
-43 -27 -59 -42 -16 -15 -42 -32 -58 -37 -15 -6 -28 -14 -28 -19 0 -5 -6 -9
-12 -9 -7 0 -44 -21 -83 -46 -38 -25 -88 -55 -110 -66 -22 -11 -47 -26 -55
-33 -8 -7 -40 -25 -70 -41 -30 -15 -62 -33 -70 -39 -8 -6 -31 -18 -50 -25 -19
-8 -37 -16 -40 -20 -8 -9 -114 -60 -125 -60 -6 0 -26 -11 -45 -24 -19 -13 -50
-27 -67 -30 -18 -4 -33 -12 -33 -17 0 -6 -4 -8 -9 -5 -5 3 -14 -1 -21 -8 -6
-8 -26 -18 -43 -21 -18 -4 -46 -15 -64 -25 -18 -11 -47 -23 -65 -29 -33 -10
-126 -46 -248 -95 -36 -15 -73 -28 -82 -29 -10 -1 -18 -5 -18 -9 0 -4 -10 -8
-22 -8 -13 -1 -48 -10 -78 -21 -30 -11 -102 -33 -160 -50 -58 -17 -119 -37
-137 -45 -17 -8 -42 -14 -56 -14 -14 0 -46 -9 -72 -20 -26 -11 -57 -20 -70
-20 -13 0 -26 -4 -29 -9 -3 -4 -40 -14 -83 -21 -43 -7 -92 -18 -109 -25 -17
-7 -64 -18 -105 -25 -41 -7 -78 -16 -84 -20 -11 -8 -30 -12 -165 -30 -47 -6
-89 -16 -95 -21 -5 -5 -30 -9 -56 -9 -26 0 -50 -4 -53 -8 -5 -8 -122 -28 -211
-37 -22 -2 -67 -9 -100 -15 -33 -6 -99 -15 -146 -19 -48 -5 -91 -11 -97 -15
-6 -4 -60 -9 -119 -11 -61 -3 -109 -9 -111 -15 -2 -5 -14 -7 -27 -4 -12 3 -26
1 -29 -5 -4 -5 -22 -7 -41 -4 -22 3 -35 2 -35 -5 0 -7 -26 -9 -76 -7 -41 2
-86 0 -100 -5 -35 -14 -153 -22 -134 -10 17 11 -30 5 -95 -13 -22 -6 -69 -12
-105 -14 -78 -3 -99 -6 -108 -19 -4 -5 -29 -10 -56 -11 -26 -1 -59 -9 -72 -18
-16 -10 -33 -13 -51 -9 -24 6 -26 5 -16 -7 10 -12 8 -17 -6 -26 -10 -7 -28 -9
-40 -6 -12 3 -21 2 -20 -3 4 -22 -2 -34 -17 -34 -8 0 -13 4 -10 8 3 4 -11 9
-30 9 -19 1 -34 -4 -34 -9 0 -6 -7 -8 -15 -4 -9 3 -15 0 -15 -9 0 -8 -9 -15
-21 -15 -11 0 -17 -4 -14 -10 6 -9 -8 -14 -28 -11 -5 1 -6 -3 -2 -9 3 -5 -1
-10 -9 -10 -9 0 -13 -7 -11 -19 3 -17 0 -19 -19 -11 -16 6 -32 4 -50 -5 -16
-9 -28 -10 -32 -4 -3 6 -16 4 -31 -7 -14 -9 -46 -18 -69 -19 -24 -2 -62 -12
-84 -23 -22 -10 -37 -15 -33 -9 4 6 -2 8 -15 5 -13 -4 -23 0 -26 8 -5 12 -9
12 -25 2 -15 -9 -17 -15 -8 -21 7 -5 2 -6 -11 -2 -42 12 -72 13 -72 1 0 -7 -3
-7 -8 -1 -7 10 -62 15 -62 5 0 -3 -18 -5 -39 -5 -21 0 -37 3 -35 7 3 4 -9 2
-26 -3 -21 -8 -39 -8 -58 -1 -28 11 -113 9 -146 -4 -11 -4 -17 -3 -14 2 4 5
-10 9 -30 10 -88 2 -190 12 -200 18 -6 3 -13 3 -16 -2 -6 -10 -76 -3 -76 7 0
4 -7 8 -15 8 -8 0 -15 -4 -15 -8 0 -5 -12 -4 -26 1 -14 6 -30 8 -35 4 -5 -3
-9 -2 -9 3 0 4 -12 8 -27 9 -97 4 -153 9 -153 14 0 4 -20 6 -44 6 -24 -1 -42
2 -39 7 6 9 -1 9 -31 -3 -18 -6 -26 -6 -26 1 0 6 -4 8 -9 5 -5 -4 -21 -2 -36
4 -17 7 -24 7 -20 0 3 -6 2 -10 -4 -10 -5 0 -12 6 -14 13 -4 9 -8 8 -16 -3 -8
-12 -11 -12 -11 -1 0 9 -7 11 -21 8 -26 -7 -51 2 -43 15 4 6 -1 6 -13 -1 -11
-6 -23 -8 -26 -5 -10 11 -147 11 -147 0 0 -8 -3 -8 -8 0 -4 5 -29 10 -57 9
-27 -1 -64 4 -82 12 -20 8 -34 9 -38 3 -3 -6 -11 -10 -16 -10 -6 0 -7 5 -3 11
4 7 -1 7 -16 -1 -17 -9 -25 -9 -34 0 -8 8 -6 10 9 5 15 -5 17 -5 6 3 -9 7 -21
7 -32 2 -9 -5 -19 -6 -23 -3 -3 3 -18 8 -32 9 -25 3 -25 2 -8 -11 17 -13 15
-13 -13 -3 -22 8 -28 15 -20 20 9 6 8 8 -4 8 -8 0 -20 -5 -27 -12 -9 -9 -12
-9 -12 0 0 6 -7 9 -15 6 -8 -4 -22 -1 -29 5 -8 7 -15 8 -18 2 -2 -5 -20 -3
-43 6 -22 8 -56 15 -75 16 -19 1 -38 6 -42 11 -3 5 -21 11 -39 13 -18 2 -42
11 -53 21 -19 16 -19 16 -12 -2 7 -19 6 -19 -13 -2 -11 10 -24 15 -30 12 -5
-4 -13 -1 -16 5 -4 5 -13 8 -20 5 -7 -2 -22 4 -33 14 -11 10 -22 16 -25 13 -3
-3 -12 -1 -19 3 -7 5 -19 9 -27 10 -7 2 -22 12 -33 24 -15 16 -23 18 -28 10
-5 -8 -9 -8 -13 3 -4 10 -13 13 -26 10 -15 -4 -23 1 -30 18 -8 19 -10 20 -10
6 -1 -16 -3 -17 -16 -3 -8 8 -15 19 -15 24 0 5 -11 8 -25 7 -17 -2 -25 2 -25
12 0 9 -6 13 -15 9 -9 -3 -15 0 -15 9 0 8 -6 15 -12 15 -7 0 -23 11 -36 25
-14 15 -29 22 -39 18 -9 -4 -14 -2 -11 3 3 5 0 15 -8 22 -9 8 -14 9 -14 2 0
-16 -30 15 -31 32 0 7 -4 4 -9 -7 -9 -19 -9 -19 -16 2 -3 13 -10 20 -15 17 -5
-3 -9 0 -9 6 0 6 -5 8 -11 5 -6 -4 -13 2 -16 14 -5 19 -15 25 -35 22 -5 0 -8
3 -8 9 0 5 -6 7 -14 4 -9 -3 -19 6 -27 25 -12 26 -15 28 -21 13 -6 -16 -7 -16
-7 1 -1 10 -5 15 -11 12 -6 -4 -7 1 -3 11 5 14 3 16 -11 11 -9 -4 -15 -3 -12
2 3 5 -6 21 -21 37 -18 20 -25 23 -20 10 6 -15 5 -17 -6 -8 -8 7 -17 9 -20 5
-7 -6 -11 11 -8 33 1 6 -6 18 -16 25 -9 8 -14 9 -10 2 5 -7 1 -9 -12 -6 -12 3
-17 11 -14 23 4 15 1 18 -17 15 -16 -3 -24 1 -27 15 -3 11 -10 20 -15 20 -6 0
-7 7 -4 16 3 8 2 12 -4 9 -5 -3 -20 5 -32 17 -13 13 -27 22 -32 20 -5 -2 -6 4
-3 12 4 9 2 18 -3 21 -4 3 -11 -1 -13 -7 -4 -8 -6 -7 -6 4 -1 9 -6 20 -13 24
-7 5 -8 3 -3 -6 5 -8 4 -11 -3 -6 -6 4 -9 12 -6 19 5 14 -44 70 -56 62 -4 -3
-6 3 -3 13 5 22 -47 78 -57 61 -10 -15 -21 17 -13 38 5 12 2 15 -10 10 -20 -8
-22 4 -4 22 10 10 9 11 -3 6 -16 -6 -60 35 -60 56 0 5 -4 7 -10 4 -5 -3 -7 0
-4 9 4 10 -2 17 -19 21 -17 5 -24 12 -20 21 3 8 0 14 -6 14 -6 0 -8 7 -5 15 5
11 2 13 -11 9 -15 -6 -16 -4 -6 14 10 18 9 21 -5 15 -20 -7 -34 13 -34 50 0
24 -9 32 -32 28 -5 0 -8 5 -8 13 0 8 -7 16 -15 20 -9 3 -12 12 -8 22 5 14 3
16 -11 11 -14 -6 -16 -3 -11 14 5 15 4 19 -4 15 -7 -4 -11 1 -11 13 0 12 -7
21 -15 21 -8 0 -15 5 -15 11 0 5 6 7 13 3 7 -4 9 -3 4 2 -5 5 -14 9 -20 9 -7
0 -12 10 -11 22 0 13 -4 19 -13 16 -8 -3 -13 3 -13 16 0 12 -4 21 -9 21 -5 0
-12 14 -16 30 -4 17 -11 30 -17 30 -6 0 -7 7 -4 16 4 11 2 15 -8 11 -10 -4
-14 0 -11 14 2 10 -1 19 -6 19 -6 0 -7 4 -4 10 3 6 -1 7 -10 4 -11 -5 -18 0
-22 15 -3 11 -10 21 -15 21 -6 0 -8 9 -5 20 3 11 1 20 -5 20 -5 0 -6 5 -3 10
3 6 -1 10 -10 10 -9 0 -14 4 -11 9 3 5 -1 11 -9 15 -8 3 -15 10 -15 16 0 6 5
8 12 4 7 -4 8 -3 4 5 -4 6 -12 9 -17 6 -5 -4 -13 5 -19 19 -5 14 -12 26 -15
26 -4 0 -3 -5 1 -12 4 -7 3 -8 -5 -4 -9 6 -9 11 -1 21 14 16 4 38 -12 29 -7
-5 -9 -1 -5 9 3 9 3 16 -1 14 -4 -1 -8 2 -9 7 0 5 -8 13 -17 18 -9 5 -14 13
-11 19 4 5 1 9 -4 9 -6 0 -11 9 -11 20 0 11 -6 20 -13 20 -8 0 -13 10 -13 22
1 13 -3 23 -9 23 -18 1 -35 16 -29 26 3 6 -2 17 -12 25 -11 9 -12 12 -4 9 8
-4 2 5 -15 20 -16 14 -24 23 -16 19 9 -5 7 2 -5 18 -10 14 -22 24 -26 21 -5
-2 -8 7 -8 21 0 16 -6 26 -15 26 -9 0 -12 6 -8 17 4 11 3 14 -5 9 -7 -4 -12
-2 -12 5 0 7 -11 27 -25 45 -14 18 -25 39 -25 48 0 8 -5 18 -12 22 -7 4 -8 3
-4 -4 4 -7 2 -12 -3 -12 -6 0 -11 11 -11 25 0 15 -6 25 -14 25 -7 0 -21 16
-30 35 -9 19 -21 35 -27 35 -6 0 -8 4 -4 9 3 5 -4 12 -15 16 -11 3 -20 12 -20
20 0 19 -39 64 -40 45 0 -8 -9 4 -20 27 -12 28 -24 41 -33 37 -8 -3 -18 5 -25
18 -8 18 -11 19 -11 6 -1 -26 -21 -22 -21 5 0 18 -2 19 -10 7 -8 -12 -10 -11
-10 8 0 12 -4 22 -9 22 -5 0 -12 -10 -14 -22 -4 -20 -4 -20 -6 4 -1 35 -17 44
-25 15 -6 -19 -8 -20 -14 -5 -6 14 -10 15 -26 3 -11 -8 -15 -19 -10 -26 5 -9
2 -10 -9 -6 -10 3 -17 2 -17 -3 0 -20 -20 -9 -34 18 l-15 27 5 -35 c4 -26 3
-31 -5 -20 -8 11 -11 11 -11 2 0 -7 -8 -12 -17 -10 -11 2 -19 -6 -24 -22 -6
-21 -7 -22 -9 -5 l-1 20 -9 -20 c-5 -11 -9 -14 -9 -6 -1 7 -7 11 -16 7 -10 -4
-17 5 -24 27 -9 32 -9 32 -10 5 -1 -28 -21 -41 -21 -14 0 21 -21 31 -31 15 -6
-9 -8 -4 -3 16 4 23 3 26 -5 15 -9 -12 -11 -11 -11 10 0 19 -3 21 -12 12 -16
-16 -28 -15 -28 3 0 7 -7 18 -16 23 -11 6 -15 17 -11 31 6 23 -7 29 -17 9 -4
-7 -4 -3 -2 10 2 12 1 20 -2 18 -4 -2 -13 2 -20 10 -7 8 -10 14 -7 14 2 0 -5
12 -17 26 -13 14 -23 32 -23 40 0 7 -4 14 -9 13 -10 0 -36 48 -36 68 0 8 -4
11 -10 8 -6 -3 -10 1 -10 10 0 10 -5 13 -11 9 -9 -5 -10 1 -5 20 4 17 3 25 -3
22 -6 -4 -13 9 -17 29 -3 19 -10 35 -15 35 -5 0 -9 9 -9 20 0 11 -7 23 -15 26
-8 4 -15 14 -15 24 0 10 -7 30 -14 46 -8 15 -13 31 -10 36 3 4 1 8 -4 8 -9 0
-23 30 -26 55 -1 6 -6 17 -11 25 -5 8 -10 17 -10 20 -3 22 -18 49 -25 45 -4
-3 -6 4 -3 16 3 12 2 24 -3 28 -11 7 -36 70 -37 93 -1 9 -4 15 -8 12 -10 -6
-22 33 -14 46 3 5 2 10 -3 10 -10 0 -37 78 -33 99 1 7 -2 10 -8 6 -6 -3 -11 1
-11 10 0 9 4 14 9 11 5 -4 4 7 -2 24 -6 16 -15 30 -19 30 -4 0 -8 13 -8 29 0
16 -5 42 -12 58 -6 15 -10 34 -9 42 1 7 -2 10 -7 7 -5 -3 -7 6 -4 19 2 15 0
25 -7 25 -7 0 -9 9 -5 24 3 13 1 27 -5 30 -6 4 -11 18 -11 32 0 14 -5 35 -12
47 -11 22 -17 46 -22 103 -2 17 -7 37 -12 45 -4 7 -12 38 -17 69 -14 93 -16
102 -32 200 -9 52 -18 104 -20 115 -1 11 -3 20 -5 20 -1 0 -3 18 -5 40 -2 22
-7 60 -11 85 -3 25 -8 70 -10 100 -2 30 -8 100 -14 155 -16 155 -23 270 -24
387 -1 58 -4 104 -9 101 -4 -2 -7 24 -7 59 0 35 -2 203 -3 373 -2 171 -2 313
0 317 2 5 6 88 9 185 7 221 11 318 13 318 1 0 4 45 6 100 2 55 7 118 11 140 4
22 8 67 10 100 2 33 6 85 9 115 3 30 7 73 9 95 2 22 7 63 11 90 4 28 8 68 10
90 2 22 4 40 5 40 1 0 3 9 4 20 2 11 6 40 9 65 4 25 9 68 12 97 3 28 9 73 15
98 6 25 13 63 15 83 8 57 10 66 17 78 7 10 36 135 43 181 2 11 6 32 11 45 4
12 8 32 10 43 1 11 14 54 29 95 15 41 31 91 36 110 5 19 11 42 14 50 2 8 14
44 28 80 13 36 23 76 22 88 -1 12 2 22 7 22 5 0 6 5 3 10 -3 6 -1 10 5 10 6 0
8 5 5 10 -3 6 -1 10 5 10 6 0 8 5 5 10 -3 6 -1 10 6 10 7 0 10 3 6 6 -3 3 3
28 13 54 10 26 16 51 13 54 -4 3 -1 6 5 6 7 0 11 3 10 8 -1 4 6 22 15 40 10
17 15 32 12 32 -3 0 6 17 19 39 19 29 22 41 13 50 -9 9 -8 11 7 5 13 -5 17 -4
12 4 -4 7 -1 12 6 13 10 0 10 2 1 6 -7 2 -13 9 -13 14 0 6 5 7 12 3 7 -4 8 -3
4 4 -4 6 1 23 10 37 9 14 18 44 19 68 3 56 4 59 13 53 4 -2 9 6 10 20 2 23 1
23 -16 6 -10 -9 -16 -23 -14 -31 3 -9 1 -12 -6 -7 -13 8 -35 -28 -24 -39 4 -3
3 -5 -3 -3 -5 1 -20 -7 -33 -19 -12 -13 -19 -23 -15 -23 4 0 -2 -7 -13 -16
-10 -8 -13 -12 -5 -8 9 5 12 3 7 -4 -4 -7 -13 -12 -20 -12 -6 0 -27 -29 -46
-64 -19 -36 -37 -63 -39 -60 -2 2 -18 -20 -34 -49 -16 -28 -36 -59 -44 -67 -8
-8 -36 -53 -63 -99 -27 -46 -53 -87 -58 -90 -5 -3 -22 -33 -37 -66 -16 -33
-31 -62 -35 -65 -11 -8 -146 -288 -171 -355 -13 -33 -29 -69 -36 -80 -7 -11
-13 -26 -13 -34 0 -8 -11 -37 -24 -65 -13 -28 -36 -87 -51 -131 -14 -44 -31
-89 -37 -99 -5 -11 -21 -58 -35 -105 -14 -47 -28 -90 -33 -96 -4 -5 -22 -57
-41 -115 -18 -58 -43 -123 -55 -145 -26 -47 -55 -141 -47 -149 4 -3 2 -6 -4
-6 -10 0 -49 -88 -45 -102 1 -5 -2 -8 -8 -8 -5 0 -10 -9 -10 -19 0 -11 -5 -21
-10 -23 -6 -2 -12 -13 -13 -26 0 -12 -4 -22 -7 -22 -3 0 -10 -12 -17 -27 -39
-95 -53 -123 -58 -123 -3 0 -3 5 1 12 5 7 3 8 -5 4 -7 -5 -10 -14 -7 -22 3 -8
1 -14 -5 -14 -6 0 -9 -6 -7 -12 5 -13 -4 -28 -34 -56 -10 -9 -18 -21 -18 -27
0 -5 -9 -21 -20 -35 -17 -21 -19 -22 -14 -5 5 18 4 18 -6 2 -6 -9 -8 -22 -4
-29 5 -7 0 -9 -14 -6 -18 5 -26 -2 -44 -33 -17 -31 -24 -36 -30 -24 -5 8 -17
15 -26 14 -14 0 -14 -2 3 -10 17 -8 16 -9 -8 -6 -22 4 -25 2 -16 -10 7 -7 9
-16 5 -20 -3 -3 -6 -1 -6 4 0 7 -22 10 -61 8 -44 -3 -59 0 -56 9 3 8 -7 11
-30 10 -28 0 -32 2 -21 10 9 7 12 18 9 29 -6 17 -8 17 -20 3 -7 -9 -19 -16
-25 -16 -6 0 -2 7 8 15 11 8 14 15 7 15 -7 0 -10 4 -6 9 3 5 1 12 -5 16 -6 4
-7 11 -4 17 4 7 2 8 -5 4 -6 -4 -8 -13 -4 -19 4 -7 1 -7 -9 1 -9 8 -15 19 -12
27 3 7 0 16 -5 20 -6 3 -9 11 -6 16 4 5 -3 9 -15 9 -12 0 -18 5 -15 10 3 6 -1
10 -9 10 -9 0 -16 5 -16 11 0 6 10 8 23 5 12 -3 16 -3 9 0 -6 3 -9 11 -6 16 5
7 2 8 -6 3 -9 -5 -10 -2 -5 14 3 12 3 21 -2 20 -25 -4 -34 2 -28 21 3 10 1 28
-5 40 -8 15 -8 20 2 21 9 0 10 2 1 5 -7 3 -9 12 -6 21 3 8 0 19 -8 24 -10 6
-11 11 -2 20 8 8 6 19 -8 43 -16 28 -17 35 -5 58 12 23 12 27 0 32 -8 3 -13 9
-12 13 1 4 -2 18 -6 31 -5 14 -3 28 4 37 9 11 9 15 1 15 -8 0 -9 6 -3 18 5 9
7 23 4 31 -3 8 0 11 6 7 7 -4 9 3 6 21 -3 16 -9 29 -14 31 -6 2 -3 11 6 19 11
11 12 19 5 26 -12 12 -15 31 -3 24 4 -3 8 31 8 75 1 44 6 83 10 87 10 7 12 44
3 51 -4 3 2 32 13 65 11 34 17 74 14 93 -2 17 -1 32 3 32 5 0 11 23 15 51 4
27 13 64 21 82 23 54 28 71 26 90 -1 9 3 17 8 17 6 0 11 13 11 29 0 17 5 33
10 36 6 3 10 24 10 45 0 21 5 40 11 42 6 2 12 17 14 33 1 17 5 37 8 45 3 8 17
47 30 85 14 39 31 86 38 105 16 45 65 179 75 205 4 11 8 22 8 25 1 5 44 104
77 177 10 24 19 46 19 49 0 8 107 234 120 254 5 8 33 60 63 115 78 147 185
326 293 491 146 224 349 493 372 494 7 0 11 4 8 9 -18 29 531 612 769 816 212
182 361 302 453 365 21 14 87 60 147 104 198 141 661 406 679 389 3 -4 6 -2 6
4 0 13 206 107 385 177 388 150 789 245 1265 301 249 29 792 43 1030 26 85 -6
198 -13 250 -16 98 -6 299 -28 405 -44 33 -6 96 -15 140 -21 216 -31 798 -149
960 -195 28 -8 120 -33 205 -55 327 -86 805 -253 857 -298 10 -10 25 -18 32
-20 60 -13 301 -161 441 -271 73 -57 302 -301 283 -301 -4 0 -1 -6 7 -13 13
-10 41 -59 45 -77 0 -3 8 -17 18 -31 10 -15 20 -37 22 -49 2 -13 9 -37 14 -54
12 -41 13 -54 9 -159 -2 -44 -8 -71 -17 -76 -7 -5 -10 -14 -7 -20 4 -6 0 -14
-8 -17 -10 -4 -16 -18 -16 -35 0 -16 -5 -29 -11 -29 -5 0 -8 -4 -5 -8 3 -5 -5
-17 -17 -27 -21 -18 -21 -18 -2 -26 17 -7 18 -8 3 -8 -10 -1 -18 -9 -18 -18 0
-9 -8 -25 -17 -36 -10 -11 -12 -17 -5 -13 15 9 17 -30 1 -40 -6 -3 -9 -14 -6
-24 2 -9 0 -24 -5 -33 -7 -13 -5 -15 9 -10 17 6 17 5 -1 -15 -19 -22 -19 -22
0 -23 11 0 14 -3 6 -6 -10 -4 -9 -8 5 -19 11 -8 13 -13 6 -14 -7 0 -13 -5 -13
-11 0 -5 5 -7 10 -4 6 3 10 1 10 -4 0 -6 6 -11 14 -11 9 0 13 -7 11 -20 -3
-17 2 -20 28 -20 24 0 28 -3 17 -10 -12 -8 -10 -10 11 -10 35 0 78 -22 85 -42
3 -11 16 -18 32 -18 19 0 23 -3 14 -9 -15 -9 20 -22 69 -26 15 -2 35 -8 45
-14 16 -10 14 -10 -11 -5 l-30 6 33 -21 c18 -12 47 -22 64 -23 18 -2 40 -11
50 -20 10 -10 25 -18 33 -18 8 0 15 -3 15 -8 0 -4 23 -18 50 -31 28 -13 50
-27 50 -32 0 -5 7 -6 16 -2 10 4 20 0 26 -10 5 -10 16 -17 24 -17 8 0 13 -4
10 -9 -3 -4 13 -14 35 -21 22 -8 35 -16 28 -20 -6 -4 1 -10 18 -14 15 -4 36
-15 45 -24 24 -24 36 -33 116 -83 17 -12 32 -25 32 -30 0 -5 7 -9 15 -9 8 0
15 -5 15 -11 0 -5 5 -7 12 -3 6 4 8 3 5 -3 -4 -6 4 -18 17 -26 13 -9 39 -30
57 -47 19 -18 44 -36 57 -41 12 -5 21 -12 20 -16 -4 -11 50 -64 92 -90 19 -12
32 -23 28 -23 -10 0 15 -30 85 -101 32 -33 55 -59 52 -59 -5 0 27 -39 78 -93
15 -17 27 -34 27 -39 0 -5 4 -7 9 -4 13 8 34 -21 25 -35 -5 -8 -3 -9 6 -4 10
6 12 4 7 -9 -6 -14 -3 -15 14 -6 18 10 19 8 15 -17 -4 -24 -3 -26 8 -11 13 17
44 9 33 -9 -3 -5 0 -10 8 -10 8 0 15 5 16 11 0 6 5 0 10 -14 l10 -25 13 23
c10 18 14 20 25 10 11 -11 13 -10 8 5 -7 19 8 24 17 5 3 -9 5 -8 3 2 -1 8 11
35 26 60 15 25 27 38 27 30 1 -8 10 10 20 40 11 30 17 62 14 72 -3 10 -1 18 4
18 12 0 27 74 23 113 -1 15 4 58 12 95 11 49 14 108 10 222 -5 188 -7 210 -13
210 -3 0 -5 15 -4 33 2 39 -45 240 -76 328 -12 35 -23 70 -23 77 0 6 -4 12 -8
12 -5 0 -5 7 -2 17 5 12 3 14 -7 8 -9 -5 -11 -4 -6 3 4 7 -5 39 -20 73 -15 33
-27 67 -27 75 0 8 -4 14 -9 14 -5 0 -6 5 -3 10 3 6 1 10 -6 10 -7 0 -10 3 -7
6 5 5 -47 122 -84 189 -6 11 -35 65 -63 120 -85 161 -89 170 -103 178 -7 5
-10 12 -7 16 2 5 -2 14 -10 21 -8 7 -15 17 -15 22 0 5 -16 29 -35 52 -19 23
-40 53 -47 66 -7 14 -47 69 -88 124 -41 54 -85 112 -97 128 -58 81 -286 323
-415 442 -54 49 -98 92 -98 96 0 3 -40 37 -90 74 -49 38 -90 71 -90 75 0 3
-18 17 -40 31 -22 13 -40 28 -40 32 0 4 -7 8 -15 8 -8 0 -15 5 -15 10 0 6 -5
10 -10 10 -11 0 -210 147 -222 165 -4 5 -8 6 -8 2 0 -7 -10 0 -44 30 -8 7 -16
9 -20 6 -3 -4 -6 -1 -6 5 0 7 -20 22 -45 34 -24 12 -42 24 -40 28 2 4 -2 7 -9
7 -18 0 -136 74 -136 85 0 5 -13 14 -30 19 -16 6 -30 15 -30 21 0 5 -4 6 -10
3 -5 -3 -10 -1 -10 4 0 6 -7 11 -15 11 -8 0 -15 5 -15 11 0 5 -4 7 -10 4 -5
-3 -10 1 -10 10 0 9 -4 13 -10 10 -5 -3 -10 -1 -10 5 0 7 -7 9 -16 6 -8 -3
-13 -2 -10 2 3 5 -10 16 -29 25 -19 9 -35 22 -35 27 0 6 -4 8 -10 5 -5 -3 -10
-2 -10 3 0 5 -18 14 -39 21 -21 6 -42 18 -45 26 -5 13 -2 14 15 4 12 -6 19 -7
15 -1 -3 5 -30 22 -60 36 -42 20 -53 31 -49 43 5 12 2 15 -10 10 -10 -4 -17
-2 -17 4 0 7 10 9 25 5 63 -15 79 -16 41 -1 -45 17 -64 31 -27 20 16 -5 21 -4
17 4 -5 8 4 10 33 5 27 -4 41 -3 41 4 0 7 17 6 50 -4 28 -8 55 -12 60 -9z
m-9133 -6041 c-3 -3 -12 -4 -19 -1 -8 3 -5 6 6 6 11 1 17 -2 13 -5z m263 -454
c0 -5 -2 -10 -4 -10 -3 0 -8 5 -11 10 -3 6 -1 10 4 10 6 0 11 -4 11 -10z
m7643 -6467 c-7 -2 -19 -2 -25 0 -7 3 -2 5 12 5 14 0 19 -2 13 -5z m-233 -78
c-7 -8 -20 -15 -29 -15 -11 1 -8 5 9 15 32 18 35 18 20 0z"/>
<path d="M9116 15298 c2 -4 -12 -10 -33 -13 -52 -9 -62 -13 -35 -14 16 -1 21
-5 16 -13 -5 -9 -2 -8 9 1 10 8 20 11 24 8 3 -4 13 -1 22 5 13 10 14 10 4 -2
-18 -19 -16 -40 3 -40 8 0 12 5 8 11 -3 6 5 3 19 -6 15 -9 31 -14 37 -10 5 3
10 0 10 -7 0 -9 3 -9 10 2 8 12 10 12 10 1 0 -9 9 -12 29 -9 17 2 28 1 25 -4
-3 -4 1 -9 8 -10 7 0 18 -2 23 -2 6 -1 16 -5 23 -9 6 -5 12 -6 12 -4 0 3 16 1
35 -3 20 -4 35 -4 35 1 0 5 10 8 23 8 16 -1 18 -2 5 -6 -10 -2 -18 -11 -18
-18 0 -8 6 -12 14 -9 8 3 28 -1 44 -10 27 -14 30 -14 28 2 -1 17 21 24 39 11
6 -4 25 -10 43 -14 17 -3 32 -11 32 -16 0 -6 -8 -6 -19 1 -11 5 -29 10 -40 10
-12 0 -21 5 -21 11 0 5 -5 7 -11 3 -15 -9 3 -25 32 -26 13 -1 30 -6 37 -11 7
-6 15 -7 19 -4 3 4 14 2 23 -3 15 -8 17 -6 13 13 -6 21 -5 20 15 -4 16 -20 44
-33 107 -50 47 -13 85 -27 85 -31 0 -5 9 -8 21 -8 11 0 29 -5 40 -10 11 -7 19
-7 19 -1 0 5 -13 12 -30 16 -16 4 -32 10 -35 15 -7 11 56 -6 108 -31 36 -16
24 -17 -23 -1 -10 3 -12 2 -5 -5 14 -15 142 -56 184 -59 18 -1 39 -8 45 -14 8
-8 4 -9 -17 -1 -35 13 -44 14 -32 2 9 -8 182 -81 193 -81 2 0 0 4 -3 10 -3 6
1 7 9 4 9 -3 14 -9 11 -13 -2 -4 13 -15 33 -25 29 -13 33 -13 18 -1 -12 9 -15
15 -7 15 7 0 27 -15 45 -34 17 -18 51 -44 76 -56 25 -13 47 -26 50 -29 3 -4
19 -14 35 -24 l30 -18 -30 27 -30 26 40 -23 c61 -35 100 -70 101 -90 1 -11 2
-24 3 -30 0 -5 11 -9 22 -7 15 2 23 -3 25 -15 1 -10 -2 -15 -9 -10 -7 3 -2 -5
10 -18 59 -65 112 -228 85 -262 -5 -7 -12 -29 -16 -49 -4 -21 -10 -38 -14 -38
-4 0 -8 -9 -9 -20 -1 -12 2 -18 9 -14 16 10 -19 -46 -54 -86 -24 -28 -27 -29
-14 -7 19 32 14 35 -14 7 -11 -11 -17 -27 -14 -37 5 -15 4 -15 -5 -3 -9 12
-11 12 -16 -2 -7 -18 -124 -98 -143 -98 -6 0 -19 -11 -27 -24 -16 -24 -53 -47
-39 -24 5 8 2 9 -10 5 -10 -4 -20 -7 -22 -7 -3 0 -2 -5 2 -11 4 -8 -1 -9 -16
-4 -15 5 -20 4 -16 -4 5 -7 1 -9 -8 -5 -9 3 -16 1 -16 -5 0 -6 -5 -11 -11 -11
-5 0 -7 4 -4 10 3 6 -1 7 -9 4 -9 -3 -13 -11 -9 -17 3 -5 1 -7 -4 -4 -14 9
-104 -23 -97 -34 3 -5 -3 -6 -12 -2 -13 5 -15 3 -9 -7 5 -9 4 -11 -4 -6 -16
10 -53 -3 -45 -16 4 -6 2 -8 -3 -5 -14 9 -156 -57 -146 -67 4 -4 -1 -4 -11 0
-15 6 -17 4 -11 -6 5 -9 4 -11 -3 -6 -16 10 -54 -12 -46 -26 4 -7 3 -8 -4 -4
-17 10 -94 -35 -87 -52 3 -7 0 -10 -6 -7 -12 8 -51 -24 -43 -36 2 -4 -7 -16
-21 -25 -39 -25 -66 -78 -70 -136 -3 -36 -2 -45 4 -28 6 21 8 16 13 -30 3 -30
2 -65 -3 -77 -9 -24 5 -33 15 -10 3 6 3 2 0 -10 -6 -26 42 -127 56 -118 5 3 7
0 4 -8 -3 -8 0 -18 7 -23 8 -5 10 -3 4 6 -5 8 -4 11 3 7 5 -4 8 -16 5 -27 -3
-12 0 -20 6 -20 7 0 9 5 5 12 -4 7 -3 8 5 4 6 -4 9 -12 6 -17 -4 -5 1 -12 10
-15 11 -5 13 -9 6 -14 -8 -4 -4 -13 11 -26 22 -19 23 -19 8 1 -14 18 -14 19 2
6 10 -7 16 -16 14 -20 -10 -16 192 -243 207 -234 6 4 7 1 2 -6 -8 -13 33 -64
45 -56 4 3 14 -3 21 -12 10 -12 10 -14 2 -9 -35 20 2 -32 47 -69 16 -12 12 -5
-10 20 l-35 40 37 -34 c21 -19 36 -37 33 -39 -3 -3 0 -11 6 -19 14 -17 -2 -17
-21 0 -8 6 -7 3 2 -8 9 -11 18 -36 20 -55 2 -29 0 -34 -15 -32 -9 2 -17 -3
-17 -10 0 -8 -5 -6 -11 5 -6 9 -15 15 -21 11 -7 -4 -5 -10 3 -16 11 -8 11 -9
-1 -5 -8 2 -14 10 -12 16 1 6 -3 11 -8 11 -6 0 -24 10 -40 21 -18 14 -37 20
-50 16 -12 -3 -19 -3 -16 0 3 4 -6 15 -21 25 -32 20 -47 23 -37 6 4 -7 3 -8
-5 -4 -6 4 -9 11 -6 16 6 10 -23 22 -36 14 -5 -3 -9 0 -9 6 0 6 -4 8 -10 5 -5
-3 -10 -1 -10 5 0 7 -6 10 -12 7 -18 -6 -50 12 -43 24 4 5 -1 9 -9 9 -9 0 -18
0 -21 0 -3 0 -14 9 -25 20 -12 12 -25 18 -31 14 -6 -3 -19 3 -30 15 -11 12
-29 21 -39 21 -11 0 -20 4 -20 9 0 10 -39 27 -52 23 -5 -1 -8 2 -8 8 0 6 -3 9
-7 9 -20 -3 -34 2 -28 11 3 6 -3 10 -14 10 -12 0 -21 5 -21 11 0 5 -4 8 -9 5
-5 -3 -14 1 -21 9 -7 8 -16 12 -21 9 -5 -3 -9 0 -9 5 0 6 -3 10 -7 9 -5 -2
-29 12 -55 30 -26 17 -51 32 -57 32 -6 0 -11 4 -11 8 0 5 -20 18 -44 30 -24
12 -49 29 -56 37 -7 8 -16 12 -21 9 -5 -3 -12 2 -15 10 -3 9 -10 13 -15 10 -5
-3 -12 3 -16 13 -8 21 -54 59 -66 55 -5 -1 -6 2 -3 7 4 5 -13 26 -36 47 -24
20 -37 34 -31 30 10 -5 11 -1 4 16 -4 13 -13 23 -19 23 -6 0 -14 4 -19 9 -5 6
-2 6 6 1 11 -6 13 -4 8 9 -4 10 -7 20 -7 22 0 2 -8 4 -17 4 -16 0 -16 2 -3 11
8 6 11 12 5 15 -6 2 -9 42 -7 96 2 71 0 89 -9 78 -9 -12 -10 -11 -4 5 4 11 8
29 10 40 1 11 3 23 4 27 0 4 7 5 14 2 17 -6 47 57 40 85 -4 15 1 23 19 30 13
5 48 41 78 80 30 39 57 71 61 71 4 0 10 7 13 16 4 10 2 13 -7 8 -6 -4 4 9 22
29 19 21 37 37 40 37 2 0 -6 -11 -19 -25 -13 -14 -19 -25 -14 -25 6 0 21 18
34 40 27 44 56 84 44 60 -7 -13 -5 -13 9 -1 9 7 15 17 12 21 -3 4 2 11 11 14
8 3 12 10 9 16 -3 5 1 10 9 10 15 0 21 12 17 33 -1 5 3 6 9 2 5 -3 10 -1 10 5
0 6 3 9 8 6 4 -2 15 9 24 25 10 16 13 29 8 29 -5 0 -14 -8 -19 -17 -6 -10 -11
-13 -11 -6 0 6 9 18 20 26 11 8 18 16 15 19 -3 3 -1 16 5 29 10 23 10 23 6 2
-5 -29 10 -30 19 -2 4 12 1 33 -6 47 -11 20 -11 26 -1 29 21 8 13 37 -18 65
-17 15 -26 22 -20 16 25 -30 7 -25 -20 5 -16 19 -30 39 -30 44 0 12 -56 44
-64 36 -3 -3 -6 -1 -6 6 0 8 -6 11 -16 7 -10 -4 -13 -2 -8 6 5 8 2 9 -9 5 -9
-3 -19 -1 -23 5 -5 7 -2 8 6 3 9 -6 11 -4 5 4 -4 7 -16 11 -26 8 -10 -3 -19
-1 -21 4 -2 6 -17 12 -33 14 -17 2 -31 4 -32 6 -2 1 -6 2 -10 3 -5 1 -14 5
-20 9 -7 5 -17 5 -23 2 -5 -3 -10 -1 -10 6 0 7 -10 9 -25 7 -14 -3 -25 -1 -25
4 0 5 -12 9 -27 7 -16 -1 -35 1 -43 4 -8 3 -22 6 -30 6 -8 0 -49 3 -90 7 -139
12 -373 14 -385 4 -7 -6 -40 -7 -76 -4 -49 4 -61 3 -49 -6 12 -9 8 -10 -18 -5
-38 8 -125 -2 -118 -13 2 -4 -23 -8 -56 -8 -33 0 -63 -6 -66 -11 -4 -6 -25
-11 -47 -11 -21 0 -41 -5 -43 -11 -2 -6 -8 -11 -13 -11 -6 0 -8 4 -5 9 3 4 -7
6 -22 3 -24 -5 -24 -6 -7 -13 17 -6 15 -8 -10 -10 -16 -1 -39 -1 -50 0 -29 3
-67 -8 -61 -18 3 -4 -7 -6 -22 -4 -22 4 -24 2 -12 -7 12 -9 11 -10 -7 -5 -25
7 -93 -14 -93 -28 0 -4 -5 -5 -11 -1 -6 3 -15 1 -19 -5 -4 -7 -26 -15 -49 -18
-22 -3 -41 -9 -41 -14 0 -5 -7 -6 -15 -3 -8 4 -15 1 -15 -5 0 -6 -7 -8 -17 -4
-10 4 -14 2 -10 -4 4 -5 -5 -15 -19 -22 -35 -16 -44 -13 -14 4 14 8 20 14 13
15 -23 0 -43 -12 -44 -29 0 -9 -3 -11 -5 -4 -3 7 -12 9 -20 6 -13 -5 -13 -7
-2 -14 8 -6 3 -8 -16 -7 -16 2 -31 -2 -33 -9 -2 -6 -13 -8 -25 -5 -13 3 -19 1
-15 -5 4 -6 -6 -13 -24 -17 -17 -3 -28 -10 -25 -14 3 -5 -11 -16 -30 -25 -47
-23 -57 -21 -14 3 48 26 31 25 -24 -2 -25 -12 -43 -25 -41 -28 2 -4 -7 -12
-21 -19 -15 -6 -23 -7 -19 -1 3 5 1 10 -4 10 -6 0 -11 -7 -11 -16 0 -8 -4 -13
-8 -10 -11 7 -97 -40 -95 -52 1 -5 -4 -13 -13 -16 -9 -4 -12 -2 -8 5 8 14 3
12 -63 -25 -29 -16 -50 -32 -48 -37 3 -4 0 -11 -6 -15 -8 -4 -9 -3 -5 4 10 17
4 15 -48 -14 -47 -26 -60 -38 -28 -27 9 3 14 3 10 -2 -4 -4 -18 -8 -30 -9 -13
-1 -22 -7 -20 -14 1 -7 -5 -12 -13 -12 -8 0 -15 -5 -15 -10 0 -6 -4 -9 -9 -8
-5 2 -17 -6 -26 -17 -9 -11 -13 -14 -10 -7 6 11 3 12 -14 3 -11 -7 -21 -14
-21 -17 0 -3 6 -2 13 2 7 4 8 3 4 -2 -5 -5 -16 -9 -25 -9 -9 0 -16 -6 -14 -13
1 -8 -2 -11 -7 -8 -5 3 -17 -2 -28 -12 -10 -9 -12 -13 -3 -7 10 6 8 2 -4 -13
-20 -23 -32 -30 -21 -12 3 6 3 10 0 10 -10 0 -40 -33 -40 -43 0 -6 -10 -11
-23 -12 -12 -1 -28 -8 -35 -15 -9 -10 -9 -11 1 -6 6 4 12 2 12 -3 0 -6 -8 -11
-17 -11 -10 0 -42 -26 -73 -57 -30 -32 -48 -49 -40 -39 15 19 14 19 -12 2 -27
-18 -40 -35 -15 -20 8 5 8 3 -2 -9 -7 -9 -17 -15 -21 -12 -13 8 -132 -114
-124 -127 5 -8 2 -9 -9 -5 -12 4 -21 -2 -31 -21 -8 -15 -24 -36 -37 -47 -24
-20 -24 -20 -9 0 15 20 14 20 -8 1 -12 -11 -22 -25 -22 -33 0 -7 -7 -13 -15
-13 -15 0 -38 -33 -30 -44 3 -3 2 -4 -2 -1 -10 8 -52 -36 -47 -49 3 -7 -8 -23
-23 -36 l-28 -25 25 28 c13 15 18 25 10 22 -16 -6 -75 -84 -75 -100 -1 -5 -6
-9 -12 -8 -6 1 -19 -7 -29 -19 -12 -14 -14 -18 -4 -13 11 6 10 3 -3 -12 -9
-11 -15 -22 -12 -25 3 -3 -3 -11 -12 -19 -17 -13 -17 -13 -3 6 15 20 14 20 -8
1 -12 -11 -22 -25 -22 -32 0 -7 -9 -18 -20 -24 -11 -6 -20 -16 -20 -21 0 -6
-11 -25 -25 -41 -14 -16 -22 -35 -19 -40 4 -7 2 -8 -4 -4 -6 4 -16 -4 -23 -16
-11 -22 -11 -22 7 -9 10 7 7 2 -9 -12 -15 -15 -26 -30 -25 -34 3 -12 -23 -56
-29 -49 -4 3 2 16 13 28 l19 23 -22 -19 c-13 -11 -23 -27 -23 -38 0 -10 -4
-18 -9 -18 -5 0 -12 -7 -15 -16 -4 -10 -2 -13 7 -9 6 4 0 -3 -15 -15 -16 -12
-28 -30 -28 -41 0 -10 -3 -19 -8 -19 -4 0 -13 -9 -20 -21 -11 -17 -11 -20 0
-14 7 3 4 -1 -6 -9 -11 -9 -17 -16 -13 -16 3 0 -5 -11 -18 -25 -25 -24 -35
-52 -14 -39 8 4 8 0 0 -15 -7 -11 -14 -21 -17 -21 -3 0 -2 5 1 10 3 6 4 10 1
10 -3 0 -15 -19 -27 -42 -12 -24 -28 -50 -35 -59 -8 -9 -16 -25 -18 -35 -8
-40 -12 -48 -28 -65 -10 -11 -15 -26 -11 -35 4 -12 3 -15 -5 -10 -8 4 -10 2
-6 -7 3 -8 -2 -17 -11 -21 -9 -3 -13 -10 -10 -16 8 -14 -4 -52 -15 -45 -9 6
-31 -50 -23 -59 4 -3 2 -6 -4 -6 -6 0 -11 -6 -10 -12 1 -32 -4 -49 -12 -44 -5
4 -7 -3 -4 -14 3 -12 -1 -22 -11 -26 -9 -3 -13 -10 -10 -15 3 -5 0 -9 -6 -9
-7 0 -10 -6 -7 -14 3 -8 -3 -26 -14 -40 -28 -35 -52 -106 -36 -106 9 0 9 -2 1
-8 -19 -12 -41 -76 -38 -107 2 -18 0 -25 -5 -17 -5 9 -12 -1 -21 -32 -7 -24
-9 -50 -5 -57 5 -8 4 -10 -4 -5 -9 6 -10 0 -6 -21 5 -22 4 -25 -5 -13 -9 12
-10 8 -5 -19 6 -26 4 -32 -6 -26 -9 6 -11 2 -7 -13 4 -12 3 -20 -2 -17 -4 3
-11 -3 -14 -12 -4 -9 -1 -20 6 -25 10 -6 10 -8 -1 -8 -9 0 -11 -8 -7 -26 5
-17 1 -35 -9 -50 -9 -14 -15 -30 -13 -37 1 -6 -4 -23 -11 -36 -8 -14 -10 -36
-6 -57 3 -19 2 -34 -2 -34 -4 0 -9 -21 -10 -46 -1 -26 -6 -50 -11 -53 -6 -3
-12 -33 -15 -66 -5 -46 -4 -52 3 -25 6 26 7 18 3 -30 -3 -36 -10 -68 -17 -72
-8 -5 -7 -8 2 -8 10 0 9 -4 -3 -16 -9 -10 -14 -25 -12 -35 3 -9 1 -37 -3 -61
-5 -25 -5 -47 1 -52 13 -14 12 -89 -2 -81 -7 5 -9 -24 -6 -92 3 -56 1 -89 -3
-78 -8 17 -9 16 -9 -8 -1 -16 3 -26 8 -23 5 4 7 -23 4 -62 -6 -80 -6 -68 -3
-222 1 -76 7 -140 16 -165 15 -44 19 -84 4 -50 -7 17 -9 15 -9 -12 -1 -17 4
-35 10 -39 7 -4 9 -25 4 -61 -5 -39 -3 -53 4 -49 7 5 11 -3 11 -19 0 -17 -4
-24 -12 -19 -7 5 -8 3 -3 -6 5 -7 8 -39 7 -69 -1 -40 1 -50 8 -36 7 16 9 12 9
-20 0 -32 -2 -36 -9 -20 -13 28 -1 -97 15 -161 7 -27 11 -63 9 -80 -4 -24 -3
-26 5 -9 8 17 10 13 12 -20 4 -55 6 -92 8 -145 2 -32 5 -40 10 -26 7 18 8 18
14 -5 4 -13 6 -35 6 -49 -1 -23 -2 -23 -9 5 -13 52 -11 -3 5 -115 18 -122 23
-142 36 -135 5 3 6 -1 3 -9 -3 -9 -2 -16 4 -16 6 0 13 6 15 13 5 11 11 -27 8
-47 -4 -20 22 -76 35 -76 8 0 14 5 14 12 0 6 3 8 6 5 4 -4 2 -12 -3 -19 -12
-15 -9 -46 6 -61 8 -8 11 -6 11 7 0 9 4 15 9 11 13 -7 10 -44 -4 -42 -5 1 -9
-6 -7 -15 2 -11 -3 -18 -12 -18 -12 0 -14 5 -6 25 9 23 6 29 -12 26 -5 0 -8
11 -8 26 0 22 -2 25 -10 13 -8 -12 -10 -10 -10 10 0 38 -11 70 -21 64 -5 -3
-6 -10 -3 -16 4 -6 8 -21 10 -32 2 -12 8 -39 14 -61 7 -22 11 -51 11 -65 -1
-17 2 -21 8 -12 5 9 11 0 16 -30 4 -24 7 -49 6 -57 -1 -7 7 -22 18 -33 19 -17
25 -16 22 5 0 4 3 7 9 7 5 0 10 7 10 16 0 8 -4 12 -10 9 -12 -7 -12 -1 0 50 6
28 6 42 -3 47 -8 5 -8 8 -1 8 7 0 10 13 7 33 -6 49 -11 109 -18 262 -6 103
-12 146 -24 164 -9 15 -11 22 -3 18 9 -6 12 1 12 27 0 20 -4 36 -9 36 -6 0 -8
39 -6 93 2 58 1 83 -5 67 -8 -24 -8 -23 -9 8 -1 18 3 31 7 28 5 -3 9 1 9 9 0
8 -4 12 -9 9 -4 -3 -8 4 -8 16 0 12 3 19 8 17 10 -7 -1 165 -12 182 -7 10 -6
12 4 6 9 -6 11 -4 4 6 -9 16 -12 689 -3 683 4 -2 5 42 2 97 -3 69 -1 105 7
115 7 7 10 28 8 46 -3 18 -2 45 3 60 4 15 11 67 14 115 7 90 9 108 20 178 4
22 7 47 9 55 1 9 5 20 9 27 4 6 4 18 1 27 -3 9 -2 22 3 29 5 6 10 21 11 32 2
24 7 45 15 65 9 22 38 141 40 162 1 10 5 18 10 18 5 0 7 6 4 14 -3 8 -3 17 1
20 3 4 7 13 9 21 5 27 11 50 13 53 2 1 4 7 5 12 1 6 4 12 5 15 1 3 4 10 5 15
1 6 4 12 5 15 1 3 4 10 5 15 1 6 4 12 5 15 1 3 4 10 5 15 1 6 4 13 5 18 1 4 2
10 1 15 0 4 4 7 10 7 5 0 8 4 4 9 -3 5 -1 12 5 16 6 4 8 10 5 15 -3 5 -1 11 5
15 6 4 8 11 5 16 -4 5 -2 9 3 9 10 0 55 103 55 126 0 8 4 14 9 14 5 0 6 5 3
10 -3 6 -1 10 5 10 6 0 8 5 5 10 -3 6 -1 10 5 10 6 0 9 4 6 9 -4 5 -1 11 4 13
6 2 12 10 13 18 2 8 5 20 8 25 34 58 68 125 64 125 -4 0 1 7 9 16 9 8 14 20
11 25 -4 5 -1 9 5 9 6 0 9 4 6 9 -3 5 1 14 9 21 8 7 15 19 15 26 0 8 4 14 9
14 5 0 15 16 22 35 7 19 17 35 21 35 4 0 8 7 8 15 0 8 5 15 11 15 5 0 7 5 4
10 -3 6 -1 10 5 10 6 0 9 4 6 9 -3 5 1 12 10 15 8 3 13 10 10 15 -3 5 1 12 10
15 8 3 13 10 10 15 -3 5 1 12 10 15 8 3 13 10 10 15 -3 5 1 12 10 15 8 3 13
10 10 15 -3 5 1 12 10 15 8 3 13 10 10 15 -3 5 1 12 10 15 8 3 13 10 9 15 -3
6 4 15 16 21 11 7 18 14 15 17 -3 3 5 14 17 25 12 11 15 17 7 13 -8 -4 -1 6
15 22 17 15 24 24 15 19 -8 -4 3 9 25 29 22 21 33 35 25 31 -8 -4 3 9 25 29
22 20 40 42 40 48 1 7 6 11 13 10 7 -2 12 2 12 8 0 35 320 309 492 421 57 36
111 73 120 81 9 9 18 13 21 11 8 -8 77 29 71 38 -3 4 2 5 10 2 9 -3 16 -1 16
5 0 6 6 8 14 5 7 -3 20 1 27 9 8 7 20 12 27 9 6 -2 12 1 12 7 0 6 7 8 15 5 8
-4 15 -2 15 4 0 6 9 8 20 5 11 -3 20 -1 20 3 0 5 31 8 69 6 40 -2 79 1 91 8
19 10 21 9 16 -7 -4 -14 4 -22 40 -38 25 -11 50 -28 55 -37 14 -27 10 -35 -7
-13 -15 19 -15 19 -9 -10 13 -58 16 -65 32 -65 13 0 13 -2 2 -17 -11 -13 -11
-17 -1 -20 7 -3 11 -20 11 -41 l-2 -37 -8 35 c-6 26 -7 15 -6 -42 1 -43 -1
-78 -5 -78 -12 0 -10 -88 2 -95 13 -8 13 -55 1 -55 -5 0 -12 6 -14 13 -4 8 -6
7 -6 -3 0 -8 3 -22 9 -30 6 -9 5 -17 -3 -22 -9 -5 -11 -45 -9 -140 4 -167 6
-187 13 -182 4 2 14 -17 24 -41 9 -25 22 -51 28 -58 27 -29 57 -101 46 -108
-8 -5 -8 -12 0 -27 17 -32 12 -39 -9 -13 -24 28 -27 15 -4 -17 9 -13 20 -19
27 -15 9 5 9 3 0 -8 -13 -16 1 -42 27 -47 23 -5 33 -19 19 -27 -8 -5 -10 -4
-5 3 7 12 -1 15 -37 15 -10 0 -16 2 -13 5 3 2 1 13 -5 24 -8 16 -13 17 -25 7
-13 -10 -13 -15 0 -34 12 -18 12 -22 0 -22 -7 0 -16 8 -19 18 -3 9 -12 20 -21
23 -11 4 -12 2 -4 -13 7 -14 6 -20 -6 -25 -8 -3 -12 -10 -9 -16 3 -6 -1 -7 -9
-4 -9 3 -16 1 -16 -5 0 -8 -4 -8 -14 1 -8 7 -11 17 -8 22 3 5 -2 7 -10 3 -10
-3 -15 0 -14 11 0 9 -4 16 -10 15 -7 -1 -20 8 -30 20 -11 12 -13 17 -4 11 24
-17 63 -16 56 2 -3 9 -6 17 -6 19 0 2 -17 12 -37 22 -21 9 -44 24 -50 33 -11
13 -12 11 -11 -12 1 -16 7 -28 12 -28 5 0 6 -3 3 -7 -4 -3 -16 2 -28 13 -12
10 -23 18 -25 17 -12 -8 -23 0 -28 22 -4 16 -13 25 -26 25 -11 0 -20 3 -21 8
0 4 -2 15 -4 25 -4 18 10 23 20 7 9 -14 25 -2 24 18 0 11 -2 13 -6 4 -4 -10
-10 -9 -25 5 -11 10 -23 17 -27 16 -3 -2 -6 5 -6 15 0 24 -16 33 -34 19 -11
-9 -13 -9 -8 0 8 13 -46 57 -57 46 -3 -3 -6 -2 -6 4 0 6 -9 9 -22 5 -15 -3
-19 -2 -14 7 5 7 2 10 -6 9 -7 -2 -12 2 -11 8 1 8 -6 10 -19 6 -12 -3 -19 -1
-16 4 4 5 -29 10 -73 10 -43 1 -79 -2 -79 -7 0 -5 -7 -9 -15 -9 -9 0 -12 -6
-9 -15 4 -10 0 -15 -11 -15 -9 0 -13 5 -10 10 8 13 -1 13 -42 -2 -18 -7 -33
-16 -33 -21 0 -5 7 -6 15 -3 38 15 48 16 25 2 -14 -8 -32 -13 -40 -11 -8 3
-22 0 -30 -6 -13 -9 -12 -10 3 -5 27 9 20 0 -19 -23 -19 -12 -40 -19 -45 -16
-5 4 -9 -1 -9 -9 0 -8 -4 -18 -10 -21 -6 -4 -7 1 -3 12 6 16 5 16 -10 4 -9 -7
-17 -19 -17 -26 0 -7 -8 -19 -17 -26 -16 -13 -17 -12 -4 4 23 30 4 19 -38 -22
-40 -39 -54 -60 -28 -45 8 5 8 3 -2 -9 -7 -9 -17 -15 -21 -12 -4 2 -18 -8 -31
-23 -13 -14 -17 -22 -9 -17 9 6 4 -1 -10 -14 -14 -13 -18 -20 -10 -16 8 3 2
-5 -15 -20 -16 -14 -29 -30 -27 -36 1 -6 -2 -8 -7 -4 -6 3 -15 -4 -21 -15 -6
-11 -7 -20 -3 -20 4 0 -2 -7 -13 -15 -10 -8 -15 -15 -11 -15 5 0 -6 -18 -25
-39 -41 -49 -76 -107 -57 -95 18 11 -17 -46 -39 -63 -9 -7 -12 -13 -6 -13 5 0
4 -4 -2 -8 -6 -4 -23 -36 -38 -72 -16 -36 -34 -77 -42 -91 -7 -14 -11 -29 -7
-33 3 -3 1 -6 -5 -6 -7 0 -11 -3 -10 -7 1 -5 -3 -18 -10 -30 -7 -13 -9 -23 -5
-23 4 0 2 -5 -4 -11 -6 -6 -9 -18 -6 -27 5 -11 3 -13 -7 -7 -10 6 -12 4 -7 -8
4 -10 2 -17 -4 -17 -6 0 -9 -6 -6 -14 3 -8 3 -17 -1 -21 -4 -4 -8 -11 -8 -16
-1 -5 -3 -11 -4 -14 -1 -3 -3 -8 -4 -12 -1 -5 -7 -17 -13 -28 -6 -11 -14 -38
-18 -60 -4 -22 -10 -49 -12 -60 -3 -11 -5 -28 -5 -37 1 -10 -4 -18 -9 -18 -6
0 -7 -9 -4 -20 4 -11 2 -20 -4 -20 -6 0 -8 -13 -5 -32 5 -27 3 -30 -6 -18 -9
12 -11 9 -6 -17 3 -18 1 -35 -4 -38 -5 -3 -7 -12 -3 -20 3 -9 0 -22 -7 -30 -8
-9 -10 -28 -6 -48 4 -23 3 -28 -4 -17 -10 15 -11 0 -10 -118 0 -19 -3 -39 -7
-45 -9 -13 -13 -49 -17 -152 -2 -38 -6 -78 -10 -87 -5 -10 -5 -129 -1 -265 4
-137 7 -277 6 -313 0 -36 2 -72 6 -80 3 -8 7 -31 9 -50 2 -32 12 -121 19 -180
2 -14 6 -47 10 -75 4 -27 7 -60 6 -72 0 -12 4 -25 9 -28 6 -3 7 -17 4 -30 -3
-12 -1 -26 5 -30 6 -3 9 -11 6 -16 -6 -8 11 -118 22 -149 6 -15 7 -20 17 -70
2 -14 7 -35 10 -47 12 -46 17 -69 27 -123 5 -30 13 -62 16 -70 3 -8 7 -19 7
-25 3 -21 19 -80 24 -90 3 -5 7 -23 9 -39 2 -17 7 -32 11 -35 4 -4 8 -17 10
-31 4 -35 109 -354 137 -416 13 -28 29 -71 35 -95 16 -58 51 -142 64 -151 6
-4 8 -8 4 -8 -4 0 1 -17 12 -39 12 -21 22 -47 24 -57 6 -31 38 -104 45 -104 4
0 8 -10 8 -22 1 -13 7 -24 13 -26 5 -2 8 -8 4 -13 -3 -5 0 -9 6 -9 6 0 8 -4 5
-10 -3 -5 -1 -10 5 -10 6 0 8 -4 5 -10 -3 -5 -1 -10 5 -10 6 0 8 -4 5 -10 -3
-5 -1 -10 5 -10 6 0 8 -4 5 -10 -3 -5 -1 -10 5 -10 6 0 8 -4 5 -10 -3 -5 -1
-10 5 -10 6 0 8 -4 5 -10 -3 -6 -2 -10 3 -10 5 0 9 -6 9 -12 0 -7 17 -39 36
-72 20 -32 41 -74 47 -92 7 -19 16 -34 21 -34 6 0 7 -4 4 -10 -3 -5 -1 -10 5
-10 6 0 9 -4 6 -9 -4 -5 -2 -11 3 -13 10 -3 61 -90 91 -155 10 -24 24 -43 30
-43 6 0 8 -4 5 -10 -3 -6 -1 -10 5 -10 6 0 9 -4 6 -8 -3 -5 2 -18 12 -28 9
-11 25 -36 36 -56 10 -21 27 -46 37 -57 11 -11 19 -25 19 -31 0 -5 5 -10 10
-10 6 0 10 -7 10 -15 0 -8 5 -15 10 -15 6 0 10 -5 10 -11 0 -12 48 -78 70 -96
8 -7 11 -13 5 -13 -5 0 1 -7 13 -16 12 -8 20 -19 18 -23 -3 -4 9 -23 27 -42
17 -19 30 -37 29 -41 -1 -5 3 -8 8 -8 6 0 15 -11 20 -25 5 -14 13 -25 18 -25
4 0 21 -20 36 -45 16 -25 33 -45 38 -45 5 0 12 -11 17 -23 13 -33 87 -117 97
-109 4 4 4 1 0 -5 -7 -13 34 -59 174 -200 36 -36 56 -60 45 -52 -11 7 -2 -6
19 -28 21 -23 44 -41 50 -40 6 1 10 -3 9 -9 -1 -6 14 -26 35 -45 20 -19 30
-25 22 -14 -8 11 1 5 20 -14 19 -18 35 -38 35 -42 0 -5 4 -9 8 -8 12 1 67 -52
67 -65 0 -6 12 -20 27 -30 16 -12 23 -14 18 -5 -5 8 17 -13 49 -46 32 -33 52
-51 45 -40 -8 11 12 -6 43 -38 32 -32 62 -56 67 -53 5 3 15 -4 24 -17 8 -12
43 -44 78 -72 35 -27 58 -41 50 -30 -7 11 -2 7 13 -8 14 -15 26 -24 26 -20 0
4 12 -5 26 -22 14 -16 22 -23 18 -15 -5 8 11 -4 35 -27 24 -23 49 -39 56 -37
7 3 16 0 21 -7 5 -8 3 -10 -7 -4 -12 8 -12 6 0 -9 8 -9 19 -15 26 -13 6 3 22
-6 34 -19 13 -14 26 -22 29 -20 8 9 43 -14 37 -25 -7 -10 35 -30 48 -22 4 2 7
-1 7 -7 0 -6 4 -9 9 -6 5 3 15 -2 22 -12 13 -15 12 -16 -3 -3 -10 7 -18 9 -18
4 0 -11 68 -45 79 -39 4 3 13 0 21 -6 12 -8 12 -9 -2 -4 -10 3 -18 4 -18 2 0
-7 145 -89 157 -89 7 0 14 -6 17 -14 3 -7 16 -13 29 -13 13 0 32 -9 42 -20 10
-11 20 -18 22 -16 3 2 14 -5 25 -16 13 -13 27 -18 42 -14 13 3 31 -1 42 -10
18 -14 18 -14 -4 -4 -13 7 -26 9 -29 6 -10 -10 65 -36 84 -30 13 4 14 3 5 -3
-9 -7 5 -17 48 -36 33 -14 58 -20 54 -14 -3 7 1 4 10 -7 8 -10 20 -15 27 -10
8 5 10 3 4 -6 -6 -10 -3 -12 13 -8 12 4 25 2 28 -3 3 -5 -1 -9 -8 -10 -7 0 -2
-5 12 -10 13 -6 34 -8 47 -4 12 3 25 0 29 -7 4 -7 3 -8 -4 -4 -7 4 -12 3 -12
-1 0 -13 68 -35 81 -27 8 5 9 3 4 -6 -6 -10 -1 -11 21 -6 20 5 25 4 14 -3 -12
-8 -9 -12 13 -20 15 -6 39 -14 52 -17 14 -3 25 -10 25 -14 0 -4 11 -8 25 -8
13 0 22 4 19 9 -3 5 -2 9 3 9 14 0 35 -17 33 -26 -2 -12 40 -23 66 -17 12 3
25 0 28 -6 4 -6 17 -11 29 -12 21 0 21 -1 2 -9 -25 -10 -15 -14 77 -31 37 -7
64 -17 61 -22 -3 -6 14 -7 43 -3 29 4 55 2 64 -4 11 -8 8 -9 -12 -4 -19 4 -28
2 -28 -6 0 -9 14 -11 53 -7 30 3 44 2 32 -3 -18 -7 -17 -8 10 -15 17 -4 36 -9
43 -11 7 -2 23 1 34 7 11 6 18 7 15 1 -7 -10 35 -32 63 -32 10 0 22 -4 25 -10
3 -5 17 -10 31 -10 14 0 22 4 19 10 -3 6 -17 10 -31 10 -14 0 -22 4 -19 10 7
12 61 2 95 -17 25 -14 25 -14 1 -7 -16 4 -21 3 -17 -5 4 -6 15 -11 25 -11 10
0 35 -7 54 -15 20 -8 51 -15 69 -14 28 1 25 3 -27 19 -33 10 -51 18 -40 19 28
0 165 -37 140 -38 -11 -1 -27 -6 -35 -12 -11 -8 -7 -9 18 -4 21 4 32 3 32 -5
0 -7 18 -10 48 -9 26 0 65 -6 87 -14 51 -20 71 -21 78 -3 4 10 -3 16 -21 19
-22 3 -20 4 10 6 20 0 44 -2 53 -6 15 -5 14 -8 -6 -20 l-24 -14 27 5 c14 3 37
2 50 -3 20 -9 19 -10 -17 -12 l-40 -2 45 -7 c25 -5 55 -6 66 -3 19 4 59 -3
128 -24 13 -3 16 -1 11 7 -6 9 -3 9 14 0 13 -6 19 -16 14 -23 -5 -9 -3 -9 8
-1 16 13 97 12 119 -1 7 -5 48 -10 89 -12 142 -7 178 -10 189 -17 6 -3 12 -1
14 5 2 7 12 7 32 -1 20 -7 32 -8 40 0 12 12 29 13 22 1 -4 -5 31 -7 82 -5 101
6 134 6 184 2 20 -2 35 0 32 3 -2 3 9 6 24 6 15 0 61 5 102 10 41 6 77 6 80 2
3 -5 23 -4 43 2 21 5 42 7 49 3 6 -4 8 -3 5 3 -4 7 2 11 16 11 31 0 77 7 182
27 50 9 104 18 120 19 17 0 36 9 43 19 7 9 18 17 24 17 7 0 3 -7 -8 -16 -18
-14 -18 -15 6 -8 14 5 35 8 48 9 13 0 22 6 22 16 0 12 12 18 42 22 55 7 63 0
9 -9 -22 -4 -41 -10 -41 -15 0 -13 21 -11 87 6 32 9 69 17 83 19 14 2 43 9 65
15 22 6 58 13 80 16 22 3 56 11 75 17 30 10 32 12 15 19 -16 6 -17 8 -3 8 9 1
19 -3 22 -8 3 -5 36 0 73 10 38 10 69 18 71 18 1 1 20 4 41 7 22 4 42 13 45
21 4 9 13 12 25 8 11 -3 22 -1 26 5 3 5 12 10 18 10 7 0 6 -4 -3 -11 -12 -8
-11 -9 6 -4 62 17 108 33 97 34 -26 2 -12 19 19 23 28 5 29 4 13 -8 -26 -19
-11 -29 22 -15 15 6 39 13 53 15 14 2 24 9 22 16 -2 8 5 9 19 5 16 -6 20 -4
13 6 -6 10 -3 10 11 -1 17 -14 18 -13 12 3 -3 9 -2 17 3 17 6 0 10 -4 10 -10
0 -9 26 -7 90 5 10 2 40 13 67 24 27 12 64 23 83 25 19 2 48 9 64 15 16 7 35
10 41 7 6 -2 12 2 12 8 0 15 -35 13 -65 -3 -15 -8 -21 -8 -25 2 -2 7 5 13 17
14 11 1 37 3 58 6 29 3 35 1 31 -11 -5 -12 -2 -12 16 -2 28 14 71 24 134 29 4
1 7 8 7 16 0 13 4 14 23 4 19 -11 20 -10 10 3 -11 12 -9 17 13 26 33 16 38 15
22 -2 -7 -8 -17 -11 -22 -8 -5 3 -6 0 -3 -5 5 -8 19 -8 44 -1 21 5 48 11 59
13 31 5 65 25 59 34 -3 5 1 11 9 14 8 3 17 -1 20 -10 5 -11 10 -13 20 -4 7 6
15 8 18 5 4 -3 19 1 36 10 16 8 32 12 36 9 3 -4 6 1 6 10 0 10 -4 17 -10 17
-5 0 -10 -4 -10 -10 0 -5 -4 -10 -10 -10 -21 0 -9 18 18 28 15 5 34 13 43 16
10 5 16 2 16 -8 0 -8 -3 -15 -6 -14 -18 2 -31 -3 -31 -12 0 -14 59 -1 95 21
17 9 32 17 35 17 14 -3 78 27 74 34 -3 4 0 8 5 8 6 0 11 8 11 18 0 14 2 15 9
2 6 -8 8 -17 5 -22 -6 -9 57 12 74 25 6 5 12 6 12 3 0 -4 10 0 22 8 12 9 31
16 41 16 9 0 20 7 23 15 4 8 9 13 13 10 4 -2 19 2 34 10 15 8 27 11 27 8 0 -3
9 2 19 11 11 10 17 24 15 31 -3 7 2 15 12 19 14 5 15 4 4 -9 -10 -13 -9 -15 8
-15 12 0 24 5 28 12 4 7 3 8 -4 4 -7 -4 -12 -1 -12 7 0 8 7 18 16 21 8 3 12 2
9 -4 -8 -13 1 -13 42 2 18 7 33 18 33 26 0 10 -5 10 -22 -2 -12 -9 -27 -16
-33 -16 -15 0 67 49 83 50 7 0 10 -5 6 -12 -4 -6 -3 -9 2 -7 5 3 21 11 37 19
15 7 27 17 27 22 0 5 -5 6 -12 2 -7 -4 -8 -3 -4 5 6 9 11 9 22 0 11 -9 15 -8
20 5 3 9 9 14 14 11 8 -5 57 44 52 53 -2 4 2 8 10 10 9 2 8 0 -2 -7 -13 -9
-13 -11 3 -11 9 0 25 9 34 20 10 11 21 20 25 20 14 0 110 70 238 174 94 76
112 95 104 107 -3 5 1 6 9 4 8 -4 26 13 48 45 19 27 38 50 43 50 5 0 -1 -12
-15 -28 -15 -17 -11 -15 14 7 38 36 47 48 25 35 -18 -10 23 38 47 56 11 8 22
13 23 11 6 -5 62 52 62 62 0 5 -8 3 -17 -4 -10 -7 -7 -1 6 14 27 30 40 36 21
10 -7 -10 8 3 34 30 26 26 45 51 41 56 -5 9 12 26 28 26 4 0 7 3 7 8 0 11 39
47 51 47 8 0 8 5 -1 15 -10 12 -9 15 4 15 10 0 14 4 11 10 -3 6 1 10 10 10 9
0 14 4 11 9 -3 5 2 17 12 28 9 10 13 12 7 3 -9 -13 -8 -13 8 -1 10 8 16 20 13
27 -3 7 0 16 6 20 7 5 8 2 3 -7 -8 -12 -6 -12 8 0 10 7 16 21 15 30 -2 8 2 16
7 16 20 1 36 17 31 31 -3 7 0 16 6 20 7 5 8 2 3 -7 -5 -10 -5 -11 3 -4 6 6 12
16 14 23 2 8 18 30 36 50 18 20 31 41 29 47 -2 5 3 16 12 23 13 11 13 12 1 7
-9 -4 -8 -1 3 8 25 20 88 127 82 138 -3 4 4 13 15 19 12 6 20 16 17 23 -2 6 5
19 16 30 10 10 16 25 13 33 -3 8 -2 13 3 10 11 -7 33 43 25 56 -4 7 -2 8 4 4
8 -5 12 2 12 18 0 14 4 26 10 26 5 0 23 27 40 60 32 63 36 75 21 66 -5 -4 -7
3 -4 14 3 11 9 18 13 15 11 -7 42 74 34 87 -4 7 -2 8 5 4 9 -6 10 0 6 21 -5
20 -4 24 3 14 8 -11 12 -6 18 25 5 21 7 42 6 47 -1 4 3 7 9 7 6 0 9 9 6 20 -3
11 -1 20 5 20 6 0 7 7 4 16 -4 9 -1 23 5 30 6 8 9 14 5 14 -4 0 0 10 8 23 18
28 38 145 30 175 -4 12 -2 22 4 22 6 0 8 27 7 68 -3 59 -3 62 5 22 7 -41 8
-39 8 30 0 41 3 89 7 105 5 21 4 26 -3 16 -7 -10 -9 17 -5 83 4 77 1 102 -11
121 -11 17 -12 25 -3 28 8 2 7 9 -6 21 -19 20 -22 43 -6 48 15 5 2 68 -13 65
-6 -1 -13 4 -16 12 -3 8 0 11 7 7 6 -4 11 -1 11 8 0 9 -5 15 -12 14 -6 -2 -13
6 -15 17 -3 17 -2 18 7 5 9 -13 11 -12 8 3 -2 10 -7 18 -13 19 -15 1 -38 59
-36 93 1 17 -6 40 -14 50 -15 19 -15 19 -4 -5 11 -22 11 -24 -3 -12 -18 15
-32 56 -16 46 6 -4 8 -1 6 7 -3 8 -10 13 -16 12 -6 -2 -10 6 -9 16 2 30 -35
102 -49 97 -8 -3 -11 0 -8 9 4 8 -7 28 -24 44 -16 17 -28 32 -25 34 4 5 -32
37 -77 70 -24 17 -24 17 -2 12 34 -10 26 3 -15 23 -21 9 -38 22 -38 27 -1 18
-79 96 -91 91 -7 -3 -15 2 -18 10 -3 9 -10 12 -16 9 -5 -3 -7 0 -5 8 4 9 -25
31 -90 66 -52 29 -98 57 -101 62 -3 5 -14 4 -26 -2 -16 -9 -19 -8 -13 2 6 9 3
11 -9 6 -10 -4 -15 -3 -11 3 4 6 -9 17 -29 25 -41 17 -70 20 -61 5 3 -6 -1 -7
-9 -4 -9 3 -15 9 -14 12 2 19 -3 23 -16 12 -11 -9 -19 -9 -33 0 -15 9 -14 10
7 4 32 -8 15 11 -19 21 -16 5 -21 4 -17 -4 4 -6 2 -11 -3 -11 -6 0 -11 3 -11
8 0 8 -48 32 -64 32 -6 0 -4 -4 3 -9 10 -6 -1 -8 -30 -4 -55 7 -73 20 -21 16
29 -2 33 -1 17 7 -11 5 -56 7 -100 5 -44 -2 -70 -1 -57 1 39 9 24 25 -21 23
-24 -2 -49 1 -55 5 -18 11 -82 15 -82 6 0 -5 19 -11 43 -13 l42 -4 -42 -1
c-28 -1 -50 4 -63 15 -15 13 -42 18 -117 19 -68 2 -93 0 -83 -8 11 -7 8 -8
-10 -2 -41 12 -145 11 -143 -2 1 -7 -11 -14 -27 -16 -16 -2 -27 -1 -25 2 5 9
-54 11 -79 4 -15 -5 -16 -8 -5 -15 8 -5 -22 -7 -74 -5 -78 3 -90 1 -100 -15
-13 -21 -32 -26 -21 -6 6 9 4 9 -7 0 -15 -15 -33 -17 -24 -3 3 5 -8 7 -27 5
-18 -2 -34 -9 -36 -15 -2 -5 -9 -7 -15 -3 -13 8 -77 11 -77 3 0 -3 -38 -5 -84
-5 -49 0 -82 4 -79 9 4 5 1 6 -6 2 -6 -4 -9 -12 -6 -17 11 -16 -7 -10 -22 9
-9 11 -12 12 -8 2 4 -8 -3 -4 -15 10 -12 14 -19 20 -16 13 4 -7 -3 -17 -14
-23 -20 -10 -21 -10 -11 8 8 16 7 23 -6 33 -9 8 -14 9 -10 3 4 -7 0 -17 -8
-24 -12 -10 -13 -7 -6 17 7 22 5 30 -5 30 -7 0 -12 -5 -11 -10 1 -5 -4 -11
-11 -12 -7 -2 -8 -1 -3 1 5 3 7 14 4 25 -5 18 -7 19 -24 3 -17 -15 -18 -15
-16 4 0 11 6 18 12 14 5 -3 4 1 -3 10 -7 8 -10 24 -6 34 4 14 1 13 -15 -6 -22
-27 -28 -56 -10 -44 7 4 10 1 7 -6 -5 -16 -38 -22 -38 -8 0 6 -10 3 -22 -8
-13 -10 -6 0 15 22 21 23 39 47 41 55 1 8 7 24 14 35 9 17 9 24 -2 33 -7 6
-16 8 -19 4 -15 -14 -6 12 11 31 16 20 16 20 -2 6 -18 -14 -19 -13 -13 3 7 18
-7 24 -18 7 -3 -5 -11 -10 -17 -10 -6 0 -5 7 3 17 8 9 13 19 12 22 -1 3 1 8 4
11 4 3 3 -1 -2 -9 -5 -10 -4 -12 4 -7 15 10 3 29 -15 22 -12 -5 -12 -2 -3 17
10 18 6 17 -22 -8 -18 -16 -28 -23 -21 -14 6 9 8 20 4 24 -4 5 -2 5 4 2 6 -3
11 1 11 9 0 10 -7 8 -25 -8 -14 -13 -22 -17 -17 -9 6 10 4 12 -6 6 -7 -5 -28
-10 -46 -10 -27 -2 -31 1 -22 11 15 18 -11 19 -30 2 -11 -11 -12 -10 -5 2 10
18 -30 -6 -96 -59 l-45 -36 19 30 c16 24 16 27 3 16 -9 -7 -43 -27 -74 -43
-32 -16 -65 -36 -73 -43 -8 -7 -26 -16 -40 -20 -14 -4 -36 -16 -49 -27 -14
-10 -44 -27 -68 -38 -24 -10 -43 -24 -43 -29 0 -6 -7 -11 -15 -11 -8 0 -22
-12 -30 -27 -9 -16 -14 -20 -11 -10 7 23 -9 21 -47 -6 -30 -20 -43 -26 -73
-31 -7 -1 -50 -23 -97 -50 -47 -26 -88 -47 -92 -47 -10 2 -104 -48 -110 -60
-5 -7 1 -6 16 2 13 7 29 14 34 15 6 1 19 5 30 10 40 15 8 -5 -47 -29 -45 -20
-55 -22 -51 -10 5 14 1 13 -25 -2 -22 -13 -28 -21 -19 -27 6 -4 10 -8 7 -9
-34 -6 -44 -10 -65 -23 -13 -9 -26 -12 -30 -7 -3 5 11 15 30 21 19 6 33 16 30
20 -6 9 -63 -13 -100 -38 -19 -13 -19 -14 5 -7 16 4 9 -3 -20 -21 -49 -30 -99
-43 -77 -19 6 7 14 12 17 10 3 -2 16 3 30 11 l25 14 -30 -7 c-37 -8 -115 -42
-115 -50 0 -3 11 -3 25 -1 13 3 22 1 19 -3 -3 -5 -14 -9 -25 -9 -11 0 -42 -11
-69 -25 -28 -14 -50 -22 -50 -18 0 5 17 16 38 25 20 10 28 15 17 12 -11 -4
-30 -6 -42 -5 -13 0 -23 -4 -23 -11 0 -6 -3 -9 -6 -5 -3 3 -24 -1 -47 -9 -22
-8 -61 -17 -86 -20 -24 -3 -53 -10 -63 -15 -10 -5 -22 -7 -27 -5 -5 3 -25 -1
-44 -9 -19 -8 -36 -12 -39 -10 -2 2 -19 5 -37 7 -25 2 -29 5 -18 13 8 5 13 18
11 28 -1 9 1 17 6 17 4 0 10 6 13 14 4 10 0 12 -14 9 -10 -3 -19 0 -19 6 0 6
7 8 17 4 11 -5 14 -3 8 6 -6 10 -3 11 15 1 12 -7 20 -8 17 -3 -3 5 3 16 14 23
10 8 19 18 19 23 0 13 41 63 48 59 4 -2 8 2 11 9 2 8 -1 9 -10 3 -12 -7 -12
-5 0 9 15 19 36 23 25 5 -4 -6 5 -3 19 8 25 18 39 43 17 29 -5 -3 -10 -4 -10
-1 0 3 20 19 45 36 54 37 134 110 121 110 -5 0 -1 9 9 20 10 11 21 17 26 15 8
-6 24 14 24 30 0 6 5 10 11 10 6 0 33 22 60 49 27 27 42 45 34 41 -13 -8 -13
-7 -1 8 7 9 20 17 27 17 8 0 14 7 14 16 0 8 4 13 9 10 4 -3 19 6 32 21 13 14
17 23 9 19 -8 -5 -1 5 17 20 58 54 68 63 113 110 25 26 34 39 20 28 l-25 -19
19 22 c10 12 27 25 37 28 11 4 17 11 14 16 -4 5 1 12 9 15 9 3 16 13 16 21 0
8 4 12 9 9 5 -3 14 1 21 9 7 8 9 15 6 15 -4 0 16 23 44 50 27 28 50 57 50 65
0 8 3 15 8 15 4 0 23 19 42 42 19 23 28 38 20 34 -8 -4 -7 -1 3 7 9 8 17 19
17 25 0 6 9 16 20 22 11 6 18 15 15 21 -4 5 -2 9 3 9 11 0 60 61 64 80 2 8 11
22 21 32 9 10 17 25 17 33 0 8 4 15 8 15 5 0 17 17 28 38 10 20 24 40 29 44 6
4 7 8 3 8 -5 0 1 9 12 20 12 12 18 25 15 29 -2 5 2 14 11 22 16 13 57 96 57
117 0 6 4 12 9 12 5 0 6 5 3 10 -3 6 -2 10 4 10 9 0 23 30 19 40 -2 3 7 21 19
40 12 19 23 44 25 55 1 11 7 23 11 26 5 4 10 18 10 33 1 14 6 26 11 26 5 0 6
3 3 7 -4 3 -2 12 4 20 7 7 13 28 15 46 2 17 8 33 14 35 5 2 7 9 4 17 -3 7 -1
16 4 19 6 3 8 15 5 26 -3 11 -1 20 5 20 10 0 28 92 23 118 -1 8 3 20 10 28 6
8 13 49 15 91 2 43 6 118 10 167 4 52 3 87 -2 83 -5 -3 -9 18 -10 46 -1 75
-12 140 -25 148 -6 4 -8 16 -4 28 4 12 2 21 -4 21 -6 0 -8 7 -5 15 4 8 1 15
-5 15 -6 0 -8 7 -5 15 4 8 1 15 -5 15 -6 0 -8 7 -5 15 4 8 1 15 -5 15 -6 0
-11 11 -11 24 0 13 -6 29 -14 36 -8 6 -13 17 -10 24 3 8 -2 21 -11 30 -15 14
-22 31 -24 59 -1 5 -5 6 -10 3 -5 -3 -8 2 -7 12 0 9 -5 16 -11 15 -7 -2 -13 2
-13 9 0 6 -13 23 -28 37 -15 14 -19 19 -8 11 17 -13 18 -13 11 0 -21 36 -58
80 -69 80 -6 0 -3 -5 7 -11 9 -5 17 -15 17 -22 -1 -7 -15 4 -32 23 -17 19 -27
29 -23 22 6 -11 3 -12 -14 -3 -25 14 -28 33 -3 24 9 -3 14 -3 10 1 -3 4 -12 9
-20 10 -32 6 -58 18 -58 28 0 6 6 6 15 -2 8 -7 15 -8 15 -2 0 5 -14 15 -31 22
-17 7 -37 20 -45 28 -8 8 -25 15 -38 16 -13 0 -22 4 -20 7 2 3 -18 16 -45 29
-39 18 -52 20 -69 11 -25 -13 -43 -14 -22 -1 8 5 11 12 7 17 -4 4 -17 2 -27
-5 -27 -16 -50 -15 -50 3 0 11 -10 14 -40 12 -31 -1 -37 -4 -26 -13 11 -8 7
-10 -20 -10 -20 0 -29 3 -21 8 8 5 4 8 -10 8 -16 0 -21 -4 -17 -15 4 -8 1 -15
-5 -15 -6 0 -11 7 -11 16 0 8 -5 12 -11 9 -5 -4 -24 -9 -41 -12 -17 -2 -37
-11 -45 -19 -8 -8 -21 -14 -29 -14 -8 0 -14 -5 -14 -10 0 -6 -6 -10 -13 -8
-21 5 -89 -41 -81 -55 5 -7 1 -6 -10 3 -16 13 -20 12 -32 -4 -7 -11 -11 -22
-9 -26 2 -3 -10 -15 -27 -25 -17 -10 -28 -13 -25 -8 4 6 -4 11 -18 11 -13 0
-26 -6 -29 -13 -3 -9 3 -11 17 -9 13 3 16 1 7 -2 -8 -4 -21 -12 -29 -18 -11
-8 -13 -8 -7 2 10 16 -4 15 -28 -3 -10 -8 -23 -12 -29 -8 -6 3 -7 1 -4 -4 4
-6 0 -16 -8 -23 -12 -10 -14 -8 -10 9 2 14 -1 18 -11 14 -8 -3 -14 -13 -14
-23 0 -22 -19 -38 -21 -18 -1 7 -1 16 0 21 2 10 -27 9 -34 -3 -3 -5 -13 -6
-22 -3 -11 4 -14 3 -9 -5 4 -7 4 -13 -1 -13 -56 -8 -67 -8 -53 2 12 9 10 10
-8 6 -12 -3 -25 0 -30 6 -14 23 -73 58 -84 51 -6 -4 -8 -3 -5 3 4 6 0 16 -8
23 -13 11 -14 10 -9 -4 8 -22 -1 -20 -31 6 -19 16 -22 24 -13 30 9 5 6 8 -9 8
-12 0 -25 5 -28 10 -3 6 -2 10 3 10 5 0 9 7 9 15 0 8 -4 12 -8 9 -11 -6 -79
64 -76 79 1 6 -3 11 -10 10 -6 -1 -14 4 -17 13 -4 10 -2 13 7 8 6 -4 -3 6 -20
23 -32 30 -44 51 -22 37 8 -4 7 0 -1 15 -6 12 -15 19 -20 16 -9 -6 -23 12 -26
33 -1 6 2 9 8 6 5 -4 4 4 -2 17 -16 31 -25 39 -17 16 4 -11 3 -16 -3 -12 -6 3
-10 13 -10 21 0 8 -5 14 -11 14 -5 0 -8 4 -4 9 3 5 -6 21 -19 34 -14 14 -22
28 -19 31 4 3 0 6 -7 6 -7 0 -11 3 -7 6 3 3 -3 16 -14 28 -29 30 -45 61 -27
51 7 -3 5 0 -4 8 -10 8 -18 20 -18 28 -1 20 -30 57 -30 38 -1 -8 -7 -3 -14 11
-8 14 -12 28 -10 32 3 5 0 8 -6 8 -6 0 -8 5 -5 10 3 6 1 10 -5 10 -6 0 -9 4
-5 9 3 5 -5 17 -17 25 -12 9 -17 16 -10 16 10 0 10 3 0 14 -7 8 -16 12 -20 9
-4 -2 -5 3 -2 11 3 9 1 16 -5 16 -6 0 -11 7 -11 15 0 8 -5 15 -11 15 -5 0 -7
5 -4 11 4 6 -1 17 -11 24 -11 8 -15 15 -10 15 6 0 1 7 -10 16 -10 8 -13 12 -5
8 11 -5 13 -3 8 10 -4 10 -7 20 -7 22 0 3 -4 2 -10 -1 -6 -4 -7 1 -3 11 3 10
0 22 -8 28 -8 6 -15 27 -15 46 -1 19 -6 36 -12 38 -6 2 -9 9 -6 15 8 21 9 206
2 194 -6 -9 -8 -8 -8 2 0 8 8 20 18 28 9 8 11 12 5 8 -7 -3 -13 -2 -13 4 0 5
4 11 10 13 5 2 16 20 25 41 9 22 11 36 6 32 -6 -3 -11 -1 -11 4 0 6 7 11 15
11 14 0 19 14 18 47 0 7 4 11 10 10 6 -1 11 3 12 10 0 6 3 15 8 19 11 11 9 26
-3 19 -5 -3 -10 -2 -10 3 0 6 6 12 14 15 8 3 20 16 26 28 9 16 9 20 0 14 -9
-6 -9 -2 -1 14 7 11 14 21 17 21 3 0 2 -4 -1 -10 -3 -5 -4 -10 -1 -10 10 0 66
122 60 131 -3 5 1 9 9 9 14 0 27 25 32 60 1 8 3 20 4 25 1 6 5 4 10 -3 6 -9
12 1 20 32 6 25 16 46 23 46 6 0 9 3 5 6 -9 10 14 64 26 57 6 -3 7 -1 3 5 -4
7 -2 20 3 29 6 10 11 14 11 8 1 -12 29 36 29 50 1 6 -4 3 -9 -5 -7 -10 -10
-11 -10 -2 0 7 6 15 14 18 15 6 40 64 31 72 -3 3 -5 -1 -5 -8 0 -7 -2 -11 -5
-8 -8 8 6 39 15 33 14 -9 32 54 26 90 -5 23 -2 44 9 64 8 17 15 40 15 53 0 33
-19 95 -33 110 -7 7 -12 19 -13 26 -1 6 -2 18 -3 25 -1 6 -17 30 -37 52 -19
22 -33 34 -29 28 3 -7 4 -13 1 -13 -3 0 -15 18 -26 39 -21 42 -45 65 -33 34 3
-10 -11 -1 -35 21 -23 21 -40 44 -39 50 1 6 -6 10 -15 10 -10 -1 -15 2 -12 7
5 8 -10 13 -29 10 -5 -1 -6 3 -3 8 6 10 -60 54 -81 54 -7 0 -13 4 -13 9 0 4
-9 8 -21 8 -13 0 -18 4 -13 12 4 6 3 9 -2 6 -13 -8 -56 10 -50 21 7 11 -22 23
-35 15 -5 -3 -9 -1 -9 4 0 13 -50 33 -62 26 -7 -5 -8 -2 -3 6 6 10 4 12 -9 7
-9 -4 -15 -3 -12 1 7 12 -101 55 -115 46 -7 -4 -9 -3 -5 4 8 13 -29 26 -45 16
-7 -4 -9 -3 -5 4 7 12 -29 26 -44 17 -5 -3 -10 -1 -10 5 0 7 -7 10 -15 6 -8
-3 -15 -1 -15 5 0 6 -7 9 -15 5 -8 -3 -15 -1 -15 5 0 6 -4 7 -10 4 -5 -3 -10
-1 -10 5 0 7 -7 10 -15 6 -8 -3 -15 -1 -15 5 0 6 -5 7 -11 3 -6 -3 -15 -1 -19
6 -5 8 -22 13 -39 13 -16 0 -28 5 -24 10 3 5 -4 6 -17 2 -16 -5 -20 -4 -15 4
5 8 -2 10 -22 6 -19 -5 -24 -3 -15 3 17 12 -70 38 -89 27 -8 -6 -10 -4 -4 4 5
9 1 12 -11 10 -11 -1 -26 1 -34 4 -8 4 -26 8 -40 9 -14 2 -28 6 -31 11 -3 4
-30 10 -59 13 -30 3 -59 9 -66 15 -6 5 -19 7 -28 3 -9 -4 -16 -1 -16 6 0 8 -9
10 -27 6 -22 -5 -25 -4 -13 5 12 8 8 9 -18 5 -20 -4 -31 -2 -27 4 3 6 -2 11
-12 11 -39 3 -72 8 -109 18 -22 5 -51 9 -66 7 -17 -2 -25 1 -21 7 4 7 -9 8
-38 3 -33 -5 -40 -4 -29 5 12 8 9 9 -13 4 -21 -4 -27 -3 -21 6 5 9 -5 11 -39
7 -26 -3 -44 -2 -41 3 3 5 -21 6 -53 4 -44 -4 -54 -3 -43 6 12 8 9 10 -12 6
-15 -2 -25 0 -22 4 8 14 -20 11 -35 -3 -11 -10 -13 -10 -7 0 5 8 -2 12 -26 13
-18 0 -42 3 -53 6 -17 4 -191 11 -412 17 -34 1 -60 -1 -57 -6z m214 -18 c0 -5
-10 -11 -22 -11 l-23 -2 22 -4 c13 -3 20 -9 17 -18 -7 -17 33 -40 61 -36 11 2
16 -1 12 -5 -11 -12 -36 -14 -43 -3 -3 5 -16 9 -29 9 -13 0 -27 5 -30 10 -3 6
-17 10 -31 10 -13 0 -24 5 -24 10 0 6 4 10 10 10 5 0 7 8 3 18 -4 11 1 8 16
-8 20 -22 21 -23 12 -3 -10 19 -8 22 17 26 15 2 28 5 30 6 1 0 2 -3 2 -9z m30
1 c0 -6 -4 -12 -8 -15 -5 -3 -9 1 -9 9 0 8 4 15 9 15 4 0 8 -4 8 -9z m90 -1
c0 -5 -5 -10 -11 -10 -5 0 -7 5 -4 10 3 6 8 10 11 10 2 0 4 -4 4 -10z m87 -2
c47 -3 41 -16 -7 -14 -22 0 -40 4 -40 8 0 4 -7 5 -15 2 -8 -4 -15 -1 -15 4 0
6 10 9 22 7 12 -3 37 -6 55 -7z m-140 -4 c-3 -3 -12 -4 -19 -1 -8 3 -5 6 6 6
11 1 17 -2 13 -5z m-162 -14 c-3 -5 -13 -10 -21 -10 -8 0 -12 5 -9 10 3 6 13
10 21 10 8 0 12 -4 9 -10z m372 4 c-3 -3 -12 -4 -19 -1 -8 3 -5 6 6 6 11 1 17
-2 13 -5z m40 0 c-3 -3 -12 -4 -19 -1 -8 3 -5 6 6 6 11 1 17 -2 13 -5z m-163
-92 c3 -5 -1 -9 -9 -9 -8 0 -15 4 -15 9 0 4 4 8 9 8 6 0 12 -4 15 -8z m350
-101 c3 -4 -6 -6 -19 -3 -14 2 -25 6 -25 8 0 8 39 4 44 -5z m678 -291 c18 -11
29 -20 23 -20 -5 0 -23 9 -40 20 -39 26 -25 26 17 0z m342 -365 l6 -40 -13 41
c-8 23 -18 47 -22 55 -6 10 -4 10 8 -1 8 -8 18 -33 21 -55z m933 -137 c-3 -8
-6 -5 -6 6 -1 11 2 17 5 13 3 -3 4 -12 1 -19z m-926 -19 c-5 -13 -10 -19 -10
-12 -1 15 10 45 15 40 3 -2 0 -15 -5 -28z m-18 -44 c-3 -9 -8 -14 -10 -11 -3
3 -2 9 2 15 9 16 15 13 8 -4z m-3818 -205 c-3 -5 -12 -10 -18 -10 -7 0 -6 4 3
10 19 12 23 12 15 0z m3640 -20 c-3 -5 -16 -15 -28 -21 -19 -9 -19 -8 3 10 28
23 34 26 25 11z m-55 -34 c0 -2 -8 -10 -17 -17 -16 -13 -17 -12 -4 4 13 16 21
21 21 13z m-40 -30 c0 -2 -7 -7 -16 -10 -8 -3 -12 -2 -9 4 6 10 25 14 25 6z
m-1374 -214 l-39 -37 33 42 c18 24 36 41 39 38 3 -3 -12 -22 -33 -43z m-36
-56 c0 -2 -7 -7 -16 -10 -8 -3 -12 -2 -9 4 6 10 25 14 25 6z m-1935 -406 c3
-5 2 -10 -4 -10 -5 0 -13 5 -16 10 -3 6 -2 10 4 10 5 0 13 -4 16 -10z m2589
-67 c9 -18 14 -33 12 -33 -6 0 -36 55 -36 66 0 11 5 3 24 -33z m-2537 -45 c2
-17 0 -19 -7 -8 -5 8 -6 18 -4 22 8 12 10 10 11 -14z m4065 -52 c2 -19 0 -32
-4 -30 -8 5 -12 64 -4 64 2 0 6 -15 8 -34z m-4075 -448 c-2 -13 -4 -3 -4 22 0
25 2 35 4 23 2 -13 2 -33 0 -45z m2868 -126 c-3 -3 -11 0 -18 7 -9 10 -8 11 6
5 10 -3 15 -9 12 -12z m203 -17 c9 -20 9 -23 -4 -18 -8 3 -12 8 -9 11 3 3 -3
14 -12 24 -14 16 -14 18 -1 13 8 -3 20 -17 26 -30z m-3071 -12 c-3 -10 -5 -4
-5 12 0 17 2 24 5 18 2 -7 2 -21 0 -30z m3060 -28 c0 -6 -8 -12 -17 -12 -9 -1
-17 4 -17 11 0 6 8 12 17 12 9 0 17 -5 17 -11z m-3050 -10 c0 -8 -4 -12 -9 -9
-4 3 -8 9 -8 15 0 5 4 9 8 9 5 0 9 -7 9 -15z m13 -45 c6 -11 8 -20 6 -20 -3 0
-10 9 -16 20 -6 11 -8 20 -6 20 3 0 10 -9 16 -20z m-595 -10 c-11 -5 -33 -9
-50 -9 -40 0 -7 14 38 16 26 2 28 0 12 -7z m90 0 c4 -6 10 -8 15 -5 8 5 36
-23 29 -29 -2 -1 -22 8 -44 20 -22 13 -33 24 -23 24 9 0 20 -5 23 -10z m530
-51 c9 -17 15 -33 13 -35 -3 -2 -12 12 -21 31 -21 43 -13 47 8 4z m-449 10 c5
-8 8 -8 13 0 5 8 14 5 26 -9 19 -21 19 -21 -10 -16 -29 5 -70 36 -48 36 7 0
15 -5 19 -11z m94 -74 c19 -21 21 -25 7 -25 -9 0 -17 7 -17 15 0 8 -4 15 -10
15 -5 0 -10 5 -10 10 0 15 4 13 30 -15z m441 -109 c-8 -10 -8 -16 2 -25 8 -6
16 -8 20 -5 3 3 10 -4 17 -15 6 -12 8 -21 5 -21 -3 0 2 -14 11 -31 8 -17 11
-28 5 -25 -15 10 -14 -7 2 -23 10 -11 10 -13 0 -7 -7 4 -13 2 -13 -3 0 -6 4
-11 10 -11 5 0 7 -7 3 -16 -5 -14 -8 -13 -26 4 -18 19 -18 22 -3 43 21 30 20
36 -4 44 -16 5 -18 10 -10 25 13 24 13 33 -1 25 -16 -11 -39 27 -28 47 5 10 5
19 0 22 -10 6 -51 82 -51 93 0 4 16 -19 36 -50 27 -44 33 -61 25 -71z m5314
-66 c-3 -5 -16 -15 -28 -21 -19 -9 -19 -8 3 10 28 23 34 26 25 11z m35 0 c0
-5 -4 -10 -10 -10 -5 0 -10 5 -10 10 0 6 5 10 10 10 6 0 10 -4 10 -10z m380
-16 c0 -2 -7 -4 -15 -4 -8 0 -15 4 -15 10 0 5 7 7 15 4 8 -4 15 -8 15 -10z
m-495 -24 c3 -5 1 -10 -4 -10 -6 0 -11 5 -11 10 0 6 2 10 4 10 3 0 8 -4 11
-10z m-30 -30 c-3 -5 -12 -10 -18 -10 -7 0 -6 4 3 10 19 12 23 12 15 0z
m-5244 -14 c-14 -17 0 -29 24 -20 9 4 14 13 11 21 -3 8 -2 12 3 9 13 -8 21
-46 9 -46 -5 0 -6 -6 -3 -12 4 -7 -1 -4 -10 7 -17 19 -17 19 -12 -15 l6 -35
-13 28 c-7 16 -19 33 -26 37 -11 7 -11 11 -1 24 8 9 16 16 18 16 3 0 0 -6 -6
-14z m-46 -16 c3 -5 1 -10 -4 -10 -6 0 -11 5 -11 10 0 6 2 10 4 10 3 0 8 -4
11 -10z m4745 -90 c0 -5 -5 -10 -11 -10 -5 0 -7 5 -4 10 3 6 8 10 11 10 2 0 4
-4 4 -10z m35 -20 c3 -5 2 -10 -4 -10 -5 0 -13 5 -16 10 -3 6 -2 10 4 10 5 0
13 -4 16 -10z m-3225 -1320 c62 -12 155 -51 228 -97 29 -18 57 -33 62 -33 6 0
10 -4 10 -10 0 -5 4 -10 9 -10 6 0 47 -27 93 -60 46 -32 99 -67 118 -77 19
-10 40 -23 46 -28 6 -6 33 -21 60 -34 27 -13 57 -28 68 -34 10 -5 55 -20 100
-35 65 -20 101 -25 181 -25 55 0 111 2 125 5 54 10 139 41 135 48 -3 4 3 7 13
6 9 0 16 5 14 12 -1 8 2 11 7 8 5 -4 14 1 19 10 5 9 11 14 13 12 9 -7 60 42
54 52 -4 6 -1 9 7 8 7 -2 12 2 11 9 -2 6 6 14 16 18 11 3 22 18 26 32 4 16 9
22 13 16 9 -15 62 30 63 54 1 15 2 16 6 2 4 -17 53 -22 53 -6 0 4 5 7 11 7 5
0 8 -3 6 -7 -3 -5 1 -14 9 -21 8 -7 14 -10 14 -7 0 4 12 -8 27 -27 15 -18 30
-35 34 -38 3 -3 12 -20 20 -37 8 -18 17 -33 20 -33 3 0 14 -24 24 -54 11 -32
23 -52 29 -49 6 3 8 3 5 -1 -4 -4 2 -35 13 -69 11 -34 21 -71 24 -83 9 -47 22
-203 19 -221 -3 -10 -6 -34 -9 -53 -10 -89 -75 -199 -126 -215 -11 -3 -20 -10
-20 -14 0 -7 -27 -11 -72 -11 -19 0 -92 8 -98 10 -3 1 -8 2 -12 1 -5 0 -8 3
-8 8 0 5 -10 11 -22 14 -13 3 -75 19 -138 35 -63 17 -137 33 -165 36 -27 2
-50 5 -50 6 0 7 -277 30 -286 24 -5 -3 -17 0 -28 5 -10 6 -43 12 -74 13 -30 2
-53 6 -50 11 2 4 -4 8 -14 8 -46 4 -61 7 -92 23 -18 10 -48 18 -66 19 -18 1
-30 6 -27 11 3 5 -2 7 -11 3 -10 -3 -17 -3 -17 2 0 8 -101 57 -112 53 -5 -1
-8 3 -8 9 0 5 -4 7 -10 4 -5 -3 -10 -2 -10 3 0 14 -126 77 -189 96 -69 20
-161 21 -208 1 -39 -16 -123 -92 -123 -112 0 -6 -6 -18 -13 -25 -17 -18 -46
-86 -52 -123 -2 -16 -9 -52 -14 -80 -18 -99 4 -415 30 -431 5 -3 7 -9 4 -14
-5 -9 47 -175 70 -220 6 -14 28 -59 48 -100 45 -93 68 -133 85 -143 7 -5 10
-12 7 -18 -4 -5 -1 -9 5 -9 6 0 8 -4 5 -10 -3 -5 -1 -10 4 -10 6 0 10 -6 9
-12 -2 -7 2 -12 9 -11 8 2 10 -4 6 -14 -4 -11 -3 -14 5 -9 7 4 10 2 7 -6 -3
-7 13 -33 35 -58 59 -67 60 -68 60 -77 0 -4 17 -26 36 -48 20 -22 33 -33 29
-25 -5 9 -4 12 1 7 5 -5 9 -12 9 -16 0 -3 13 -22 29 -41 15 -19 25 -28 20 -20
-4 8 9 -2 30 -22 20 -21 42 -37 49 -35 7 1 11 -4 9 -10 -1 -7 5 -13 13 -13 22
0 18 22 -8 50 -23 25 -27 32 -27 50 0 6 -7 10 -15 10 -19 0 -55 58 -48 76 5
13 -28 68 -57 92 -13 12 -13 13 0 7 8 -4 4 3 -10 15 -14 12 -18 19 -10 15 13
-6 13 -5 0 7 -8 7 -17 22 -18 33 -2 11 -7 22 -11 25 -18 14 -133 276 -155 354
-25 86 -43 200 -38 241 1 11 4 41 6 67 2 27 9 54 15 62 7 8 14 27 17 42 5 30
23 66 24 48 0 -6 19 8 43 31 53 50 122 74 227 76 41 1 77 0 80 -1 3 0 20 -3
38 -5 18 -1 42 -11 52 -20 11 -10 20 -15 20 -10 0 4 6 2 13 -4 8 -6 17 -8 20
-4 4 3 7 -1 7 -10 0 -14 35 -34 53 -29 4 1 7 -3 7 -8 0 -6 11 -15 24 -21 14
-7 22 -17 19 -25 -3 -8 1 -14 11 -14 13 0 14 -4 5 -23 -10 -22 -15 -23 -110
-21 -54 2 -103 6 -109 9 -5 3 -10 2 -10 -4 0 -5 6 -12 13 -14 6 -3 -7 -6 -30
-6 -24 -1 -43 3 -43 8 0 5 10 7 22 3 14 -3 19 -2 14 6 -9 14 -39 16 -64 3 -35
-18 -77 -34 -84 -33 -5 1 -8 -3 -8 -8 0 -6 -10 -25 -22 -41 -34 -46 -32 -187
4 -284 24 -68 82 -185 90 -185 5 0 6 -4 3 -10 -3 -5 -1 -10 4 -10 6 0 11 -7
11 -15 0 -8 5 -15 12 -15 6 0 9 -3 5 -6 -6 -6 70 -116 85 -122 4 -2 8 -8 8
-14 0 -18 87 -117 200 -228 98 -95 163 -150 302 -254 141 -105 440 -259 668
-344 116 -43 338 -110 420 -126 14 -3 43 -10 65 -15 22 -5 56 -12 75 -15 19
-3 51 -10 70 -14 19 -5 37 -9 40 -9 3 -1 21 -4 40 -7 111 -18 323 -44 415 -51
43 -4 82 -8 85 -10 3 -1 66 -6 140 -9 74 -4 173 -9 220 -12 47 -2 319 -7 605
-9 286 -2 538 -6 560 -9 22 -4 83 -8 135 -11 52 -2 114 -7 138 -10 23 -3 59
-7 80 -9 20 -2 57 -8 82 -14 25 -6 56 -13 70 -16 14 -3 45 -10 70 -17 25 -6
52 -12 62 -14 9 -2 30 -11 48 -20 18 -9 34 -14 38 -11 3 3 12 0 21 -8 9 -8 23
-16 31 -18 8 -2 17 -6 20 -10 3 -3 12 -8 20 -10 8 -2 19 -8 25 -15 5 -7 17
-13 25 -15 8 -2 21 -11 28 -21 7 -9 17 -15 22 -12 4 3 14 -3 21 -12 12 -14 12
-16 0 -8 -10 5 -12 4 -7 -3 4 -7 14 -12 22 -12 8 0 12 -5 9 -10 -3 -6 4 -14
17 -19 13 -6 20 -10 15 -10 -4 -1 0 -12 9 -26 9 -14 21 -22 27 -18 5 3 7 1 4
-4 -4 -6 5 -37 20 -69 24 -51 27 -71 26 -149 0 -49 -4 -103 -8 -120 -4 -16 -9
-43 -12 -60 -3 -16 -10 -33 -15 -36 -4 -3 -10 -16 -13 -29 -2 -12 -11 -30 -20
-40 -8 -9 -15 -24 -15 -34 0 -9 -4 -14 -10 -11 -9 6 -14 -8 -11 -27 0 -5 -4
-8 -10 -8 -5 0 -8 -4 -5 -9 3 -4 -23 -39 -59 -77 -35 -38 -65 -74 -65 -79 0
-6 -30 -38 -67 -70 -37 -33 -76 -69 -87 -80 -32 -33 -216 -162 -391 -273 -49
-32 -256 -134 -307 -153 -21 -7 -38 -17 -38 -21 0 -4 -6 -8 -13 -8 -8 0 -29
-7 -47 -16 -18 -9 -46 -20 -64 -25 -43 -11 -277 -89 -301 -100 -11 -5 -31 -11
-45 -13 -14 -3 -25 -5 -25 -6 0 -1 -7 -3 -15 -5 -8 -2 -53 -13 -100 -24 -47
-12 -98 -24 -115 -27 -16 -2 -41 -7 -55 -11 -14 -3 -34 -8 -45 -10 -41 -8
-241 -44 -260 -48 -70 -12 -329 -45 -395 -51 -408 -32 -476 -36 -744 -34 -406
2 -514 10 -796 56 -165 26 -414 85 -467 109 -17 8 -38 15 -48 15 -9 0 -29 7
-45 15 -16 8 -40 16 -54 17 -13 1 -23 5 -21 8 2 4 -26 21 -64 39 -65 31 -67
33 -66 68 0 23 6 38 15 41 13 3 13 2 0 -7 -13 -9 -13 -11 2 -11 9 0 19 6 21
13 4 9 8 9 15 -2 5 -7 15 -10 21 -6 7 3 150 6 319 6 269 -1 365 3 562 24 46 5
225 38 270 50 14 4 34 8 45 10 11 2 21 4 23 4 1 1 4 0 5 -1 2 -2 11 3 21 11 9
8 19 11 23 8 3 -4 12 -2 20 4 7 6 13 9 13 6 0 -8 50 8 128 41 34 15 62 30 62
34 0 5 8 8 19 8 10 0 30 11 45 25 14 13 26 21 26 18 0 -3 7 0 15 7 9 7 14 19
11 26 -3 7 0 16 6 20 7 5 8 2 3 -7 -8 -12 -6 -12 8 0 14 11 15 16 5 29 -10 13
-10 14 0 8 7 -4 15 -1 18 8 8 22 -41 84 -71 92 -14 3 -25 11 -25 16 0 6 -6 8
-14 5 -8 -3 -17 0 -19 8 -5 11 -79 32 -99 27 -5 -1 -8 3 -8 9 0 6 -6 9 -12 6
-7 -2 -21 0 -31 5 -10 5 -36 11 -58 14 -22 3 -50 9 -63 14 -24 9 -201 37 -276
44 -25 2 -74 9 -110 16 -36 6 -81 13 -100 15 -19 2 -77 11 -129 19 -52 8 -98
13 -102 10 -4 -2 -10 0 -14 6 -3 5 -16 10 -28 10 -30 0 -335 60 -367 73 -8 3
-26 8 -40 10 -40 8 -63 15 -90 25 -14 5 -27 10 -30 10 -3 0 -12 3 -20 6 -8 3
-42 13 -75 22 -33 9 -64 20 -70 24 -5 4 -39 17 -75 30 -76 27 -116 43 -187 76
-28 13 -59 24 -67 24 -8 0 -17 4 -20 9 -4 5 -50 31 -104 58 -135 69 -332 188
-340 206 -2 4 -10 7 -18 7 -8 0 -14 5 -14 12 0 6 -3 9 -6 5 -3 -3 -16 4 -29
16 -28 26 -107 82 -117 82 -4 0 -13 7 -20 15 -22 25 -72 66 -63 51 4 -7 -21
14 -55 48 -35 34 -67 61 -71 61 -4 0 -35 29 -70 65 -34 35 -66 62 -72 58 -6
-3 -8 -2 -5 3 7 11 -68 85 -77 76 -4 -4 -5 0 -3 8 2 9 -3 14 -12 12 -8 -2 -12
0 -8 4 8 7 -50 79 -64 79 -4 0 -7 2 -5 5 2 6 -65 103 -92 132 -32 35 -42 48
-34 48 4 0 -9 16 -28 37 -18 20 -28 32 -20 28 11 -6 13 -4 8 9 -4 10 -7 22 -7
27 0 6 -6 7 -12 3 -9 -6 -9 -3 0 9 8 9 10 22 6 28 -5 8 -3 9 6 4 10 -6 12 -4
6 10 -4 11 -2 22 6 26 9 6 8 11 -3 25 -13 16 -12 16 8 4 12 -8 20 -17 18 -20
-2 -4 2 -7 9 -7 8 0 12 6 9 12 -2 7 3 15 12 19 9 3 13 2 10 -3 -3 -5 -1 -12 5
-16 5 -3 10 -1 10 6 0 10 3 10 12 1 15 -15 32 -16 23 -2 -3 6 1 10 10 10 9 0
14 4 11 8 -3 5 1 9 9 9 8 0 15 -4 15 -8 0 -9 37 -18 45 -11 3 3 12 7 19 8 7 1
31 10 52 20 22 11 42 19 46 19 3 0 10 3 14 8 4 4 0 7 -9 7 -9 0 -17 4 -17 10
0 6 9 6 25 0 22 -8 26 -6 31 15 3 14 9 23 13 20 4 -2 15 10 25 26 13 21 15 34
7 42 -7 9 -5 22 10 46 11 18 17 37 13 42 -3 5 0 16 6 24 13 16 18 274 7 355
-28 208 -32 711 -7 860 6 36 13 79 16 95 8 61 69 295 84 324 5 9 16 34 25 56
113 265 246 451 410 574 69 52 90 62 170 82 82 20 142 23 215 9z m-3843 -1097
c-3 -10 -5 -2 -5 17 0 19 2 27 5 18 2 -10 2 -26 0 -35z m8830 -110 c-4 -3 1
-12 11 -19 16 -12 16 -13 -2 -20 -12 -5 -21 -3 -24 4 -2 7 -13 4 -32 -10 -17
-12 -35 -18 -46 -14 -11 4 -27 -2 -46 -21 -15 -15 -28 -23 -28 -19 0 5 -8 2
-17 -5 -14 -12 -14 -10 1 14 21 31 28 35 20 10 -5 -15 -3 -15 13 2 22 24 83
76 66 55 -20 -22 -15 -32 10 -18 12 7 25 11 28 11 4 -1 15 7 24 17 10 11 20
20 23 20 3 0 2 -3 -1 -7z m45 -25 c-7 -7 -12 -8 -12 -2 0 14 12 26 19 19 2 -3
-1 -11 -7 -17z m78 -22 c-18 -18 -56 -16 -57 4 -2 26 38 43 55 22 8 -10 9 -19
2 -26z m-4505 14 c3 -6 -1 -7 -9 -4 -18 7 -21 14 -7 14 6 0 13 -4 16 -10z
m4520 -50 c-1 -16 2 -31 7 -31 4 -1 12 -2 17 -3 5 0 12 -4 15 -8 3 -5 3 -6 -1
-3 -3 3 -14 -2 -24 -11 -13 -12 -19 -12 -25 -3 -5 8 -3 10 7 5 8 -4 6 -1 -4 7
-12 10 -14 17 -8 22 6 3 11 11 11 17 0 6 -6 5 -16 -2 -12 -11 -15 -11 -12 1 2
9 -4 13 -16 11 -11 -2 -15 1 -11 8 4 6 13 9 21 6 7 -3 16 -1 19 4 12 19 22 9
20 -20z m-4525 10 c0 -5 -5 -10 -11 -10 -5 0 -7 5 -4 10 3 6 8 10 11 10 2 0 4
-4 4 -10z m4185 -20 c-3 -5 -14 -10 -24 -10 -9 0 -28 -12 -40 -26 -12 -14 -25
-23 -29 -19 -11 11 62 62 91 64 5 1 5 -3 2 -9z m425 6 c0 -2 -7 -7 -16 -10 -8
-3 -12 -2 -9 4 6 10 25 14 25 6z m-530 -50 c0 -2 -8 -10 -17 -17 -16 -13 -17
-12 -4 4 13 16 21 21 21 13z m-98 -68 c-7 -7 -12 -8 -12 -2 0 14 12 26 19 19
2 -3 -1 -11 -7 -17z m-62 -22 c0 -2 -7 -9 -15 -16 -13 -11 -14 -10 -9 4 5 14
24 23 24 12z m660 -12 c0 -10 -6 -14 -14 -11 -7 3 -18 2 -22 -1 -5 -4 -1 1 9
11 24 21 27 21 27 1z m45 -14 c-3 -5 2 -10 12 -10 17 -1 17 -1 0 -11 -10 -6
-14 -15 -10 -22 5 -9 2 -8 -9 0 -8 7 -17 12 -19 10 -2 -1 1 3 7 8 6 6 9 16 7
23 -3 6 0 12 7 12 6 0 8 -4 5 -10z m615 -10 c0 -5 -10 -10 -22 -10 -19 0 -20
2 -8 10 19 13 30 13 30 0z m-1415 -14 c-11 -8 -23 -12 -27 -10 -5 3 -8 1 -8
-4 0 -6 -18 -19 -40 -30 -22 -10 -37 -15 -34 -11 3 5 0 9 -5 9 -6 0 -11 -4
-11 -9 0 -5 -10 -11 -22 -14 -22 -6 -22 -5 2 14 14 10 30 23 37 29 8 6 13 5
15 -2 3 -8 15 -4 36 11 18 12 32 19 32 15 0 -5 5 -3 12 4 7 7 16 12 22 12 5 0
1 -6 -9 -14z m1265 -6 c0 -5 -5 -10 -11 -10 -5 0 -7 5 -4 10 3 6 8 10 11 10 2
0 4 -4 4 -10z m-395 -13 c11 -11 10 -16 -6 -25 -16 -10 -19 -9 -19 3 0 8 -5
15 -11 15 -5 0 -7 5 -4 10 9 14 24 13 40 -3z m45 -6 c0 -5 8 -11 18 -13 11 -2
13 -6 6 -10 -6 -4 -19 1 -29 12 -10 12 -13 20 -7 20 7 0 12 -4 12 -9z m265 0
c3 -5 -8 -9 -23 -9 -16 1 -34 -2 -41 -6 -6 -4 -11 -5 -11 -1 0 6 39 23 57 24
6 1 14 -3 18 -8z m-110 -12 c-7 -11 -35 -12 -35 -1 0 4 9 8 20 9 11 1 18 -2
15 -8z m-80 -9 c3 -5 2 -10 -4 -10 -5 0 -13 5 -16 10 -3 6 -2 10 4 10 5 0 13
-4 16 -10z m-9176 -94 c1 -57 -5 -40 -12 29 -3 37 -2 51 3 35 4 -14 8 -43 9
-64z m108 12 c-3 -8 -6 -5 -6 6 -1 11 2 17 5 13 3 -3 4 -12 1 -19z m10813 -9
c14 -11 19 -18 12 -14 -57 30 -65 35 -52 35 8 0 26 -10 40 -21z m-10901 -56
c0 -29 -2 -33 -8 -18 -7 18 -4 55 5 55 2 0 4 -17 3 -37z m88 -15 c-3 -7 -5 -2
-5 12 0 14 2 19 5 13 2 -7 2 -19 0 -25z m10928 4 c-3 -3 -11 0 -18 7 -9 10 -8
11 6 5 10 -3 15 -9 12 -12z m-3965 -25 c0 -2 -16 -19 -36 -38 -33 -31 -35 -31
-19 -6 17 27 55 57 55 44z m-6950 -74 c0 -24 -3 -33 -9 -25 -7 12 -4 62 5 62
2 0 4 -17 4 -37z m6827 -58 c0 -8 -4 -12 -9 -9 -4 3 -8 0 -8 -7 0 -7 -3 -9 -6
-6 -4 4 -1 13 6 22 15 19 17 19 17 0z m-6831 -63 c-11 -10 -14 3 -8 33 l7 30
3 -28 c2 -16 1 -31 -2 -35z m7199 48 c-3 -5 -12 -10 -18 -10 -7 0 -6 4 3 10
19 12 23 12 15 0z m-102 -35 c-17 -8 -43 -16 -57 -19 -14 -3 -29 -7 -34 -10
-4 -2 -14 -1 -22 4 -9 6 -2 10 26 15 21 3 53 10 69 14 45 13 54 11 18 -4z
m-300 -29 c12 2 16 2 9 -2 -6 -3 -9 -10 -6 -16 4 -6 -2 -5 -15 1 -11 7 -21 17
-20 24 0 8 2 9 5 1 3 -7 15 -10 27 -8z m107 -6 c0 6 5 8 10 5 6 -4 8 -10 5
-15 -6 -10 -81 -7 -92 4 -4 4 5 4 21 0 22 -5 27 -4 21 6 -6 9 -3 10 14 1 15
-8 21 -9 21 -1z m4351 -87 c13 -16 12 -17 -3 -4 -10 7 -18 15 -18 17 0 8 8 3
21 -13z m-8744 -598 c0 -8 -3 -13 -5 -10 -3 3 -10 1 -16 -5 -7 -5 -18 -5 -25
-1 -9 6 -10 11 -2 15 6 4 11 2 11 -4 0 -7 7 -5 16 4 19 20 21 20 21 1z m8970
-42 c-3 -10 -5 -4 -5 12 0 17 2 24 5 18 2 -7 2 -21 0 -30z m-777 -1906 c0 -2
-10 -12 -22 -23 l-23 -19 19 23 c18 21 26 27 26 19z m-410 -401 c0 -3 -15 -15
-32 -27 l-33 -23 24 27 c22 24 41 35 41 23z m-110 -92 c-17 -19 -50 -37 -50
-27 0 7 48 42 59 43 2 0 -2 -7 -9 -16z m-105 -74 c-21 -16 -40 -30 -43 -30
-10 0 62 59 72 60 5 0 -8 -13 -29 -30z m-140 -100 c-3 -5 -11 -10 -16 -10 -6
0 -7 5 -4 10 3 6 11 10 16 10 6 0 7 -4 4 -10z m-320 -181 c-4 -5 -13 -9 -22
-9 -13 0 -13 3 -3 15 13 15 35 11 25 -6z m-55 -13 c0 -3 -4 -8 -10 -11 -5 -3
-10 -1 -10 4 0 6 5 11 10 11 6 0 10 -2 10 -4z m-30 -11 c0 -7 -63 -45 -75 -45
-5 0 2 8 15 17 14 10 28 18 32 18 3 0 10 3 14 8 9 8 14 9 14 2z m-105 -55 c-3
-5 -12 -10 -18 -10 -7 0 -6 4 3 10 19 12 23 12 15 0z m-150 -59 c-3 -6 -11
-11 -16 -11 -5 0 -4 6 3 14 14 16 24 13 13 -3z m-5580 -61 c3 -6 -1 -7 -9 -4
-18 7 -21 14 -7 14 6 0 13 -4 16 -10z m5349 -4 c-3 -8 -15 -16 -27 -19 -21 -6
-21 -6 2 14 28 23 32 24 25 5z m-100 -38 c-3 -4 -11 -5 -19 -1 -21 7 -19 12 4
10 11 0 18 -5 15 -9z m-79 -17 c3 -5 1 -12 -5 -16 -5 -3 -10 1 -10 9 0 18 6
21 15 7z m-157 -46 c-3 -3 -14 -8 -24 -10 -11 -2 -30 -7 -44 -11 -38 -10 -19
4 26 20 36 13 54 13 42 1z m-222 -57 c4 -7 4 -10 0 -6 -4 3 -38 -6 -74 -21
-37 -15 -73 -26 -81 -23 -9 3 -11 0 -6 -9 6 -11 5 -12 -5 -2 -18 17 -11 22 57
40 32 8 65 19 73 24 21 12 28 11 36 -3z m-4086 -108 c12 -8 12 -10 -5 -9 -11
0 -29 4 -40 9 -18 8 -18 9 5 9 14 0 32 -4 40 -9z m3720 6 c0 -2 -7 -7 -16 -10
-8 -3 -12 -2 -9 4 6 10 25 14 25 6z m-3673 -22 c-3 -3 -12 -4 -19 -1 -8 3 -5
6 6 6 11 1 17 -2 13 -5z m3528 -14 c-3 -5 -12 -10 -18 -10 -7 0 -6 4 3 10 19
12 23 12 15 0z m-161 -42 c-3 -4 -9 -8 -15 -8 -5 0 -9 4 -9 8 0 5 7 9 15 9 8
0 12 -4 9 -9z m-44 -7 c-8 -5 -26 -12 -40 -15 l-25 -7 25 15 c14 9 32 15 40
15 13 0 13 -1 0 -8z m-3015 -29 c-3 -3 -11 0 -18 7 -9 10 -8 11 6 5 10 -3 15
-9 12 -12z m2810 -22 c-3 -5 -11 -10 -16 -10 -6 0 -7 5 -4 10 3 6 11 10 16 10
6 0 7 -4 4 -10z m-77 -15 c-2 -2 -19 -6 -38 -9 l-35 -5 30 14 c25 11 54 11 43
0z m39 9 c-3 -3 -12 -4 -19 -1 -8 3 -5 6 6 6 11 1 17 -2 13 -5z m-207 -44 c0
-5 -2 -10 -4 -10 -3 0 -8 5 -11 10 -3 6 -1 10 4 10 6 0 11 -4 11 -10z m-2137
-7 c-7 -2 -19 -2 -25 0 -7 3 -2 5 12 5 14 0 19 -2 13 -5z m82 -13 c-3 -5 -12
-10 -18 -10 -7 0 -6 4 3 10 19 12 23 12 15 0z m1815 -20 c-8 -5 -26 -9 -40 -9
-21 0 -22 2 -7 8 10 4 28 8 40 8 17 2 19 0 7 -7z m-1577 -11 c9 0 15 -4 12
-10 -8 -12 -38 -12 -50 0 -6 5 -19 12 -30 15 -11 3 -4 3 15 0 19 -2 43 -5 53
-5z m72 -9 c3 -6 -4 -10 -17 -10 -18 0 -20 2 -8 10 19 12 18 12 25 0z m1360
-10 c3 -5 1 -10 -4 -10 -6 0 -11 5 -11 10 0 6 2 10 4 10 3 0 8 -4 11 -10z
m-1308 -6 c-3 -3 -12 -4 -19 -1 -8 3 -5 6 6 6 11 1 17 -2 13 -5z m159 -15 c6
-11 -87 -12 -113 -2 -13 6 -8 9 22 13 46 6 83 1 91 -11z m31 6 c9 -24 -1 -27
-15 -5 -8 13 -8 20 -2 20 6 0 13 -7 17 -15z m993 4 c0 -14 -32 -18 -50 -6 -17
12 -15 13 16 13 19 0 34 -3 34 -7z m-80 -11 c0 -6 -3 -8 -7 -5 -3 4 -11 3 -18
-3 -6 -5 -22 -6 -36 -3 l-24 7 25 7 c39 11 60 10 60 -3z m-840 -9 c0 -5 -15
-9 -32 -9 -20 0 -28 3 -21 8 18 11 53 12 53 1z m55 -3 c18 -8 35 -10 37 -6 2
6 9 6 18 0 12 -8 12 -10 -4 -16 -10 -4 -27 -2 -37 4 -10 7 -28 12 -39 12 -11
0 -20 5 -20 10 0 13 4 13 45 -4z m89 -2 c3 -8 10 -12 16 -9 5 3 10 1 10 -4 0
-6 -9 -11 -20 -11 -11 0 -20 2 -20 4 0 2 -3 11 -6 20 -3 9 -2 16 4 16 5 0 13
-7 16 -16z m601 6 c3 -5 2 -10 -4 -10 -5 0 -13 5 -16 10 -3 6 -2 10 4 10 5 0
13 -4 16 -10z m-478 -12 c7 -5 16 -7 21 -4 4 3 44 7 88 10 72 4 77 4 49 -9
-16 -7 -24 -14 -16 -14 8 -1 11 -4 7 -8 -4 -5 -14 1 -22 11 -8 11 -14 15 -14
9 0 -6 -9 -9 -22 -5 -14 3 -19 2 -14 -6 9 -14 5 -15 -28 -3 -17 7 -26 7 -29
-2 -3 -9 -8 -9 -20 1 -9 8 -20 11 -26 8 -5 -3 -17 -3 -26 0 -11 5 -13 9 -5 14
16 10 43 9 57 -2z m258 2 c4 -6 -6 -10 -22 -9 -25 0 -26 1 -8 9 11 5 21 9 22
9 1 1 5 -3 8 -9z m129 1 c3 -5 -1 -11 -9 -15 -8 -3 -15 0 -15 7 0 8 -3 8 -8 1
-8 -11 -52 -14 -52 -3 0 7 27 15 62 18 9 0 19 -3 22 -8z"/>
<path d="M9081 8333 c7 -12 15 -20 18 -17 3 2 -3 12 -13 22 -17 16 -18 16 -5
-5z"/>
<path d="M13949 9333 c-13 -16 -12 -17 4 -4 9 7 17 15 17 17 0 8 -8 3 -21 -13z"/>
<path d="M10630 14685 c0 -9 53 -65 62 -65 15 0 3 24 -23 47 -26 22 -39 28
-39 18z"/>
<path d="M11585 14640 c10 -11 20 -20 23 -20 3 0 -3 9 -13 20 -10 11 -20 20
-23 20 -3 0 3 -9 13 -20z"/>
<path d="M10780 14151 c0 -5 -3 -18 -6 -28 -6 -16 -5 -16 9 2 19 23 21 35 7
35 -5 0 -10 -4 -10 -9z"/>
<path d="M9740 13300 c0 -5 5 -10 10 -10 6 0 10 5 10 10 0 6 -4 10 -10 10 -5
0 -10 -4 -10 -10z"/>
<path d="M14351 12844 c0 -11 3 -14 6 -6 3 7 2 16 -1 19 -3 4 -6 -2 -5 -13z"/>
<path d="M11755 12260 c3 -5 8 -10 11 -10 2 0 4 5 4 10 0 6 -5 10 -11 10 -5 0
-7 -4 -4 -10z"/>
<path d="M7046 12227 c-3 -12 -2 -24 3 -27 5 -3 12 -15 16 -28 4 -13 9 -21 12
-18 4 3 13 0 22 -7 12 -9 11 -5 -3 17 -10 16 -13 25 -7 22 18 -12 12 4 -13 35
-23 27 -24 28 -30 6z"/>
<path d="M15751 12134 c0 -11 3 -14 6 -6 3 7 2 16 -1 19 -3 4 -6 -2 -5 -13z"/>
<path d="M12958 12133 c7 -3 16 -2 19 1 4 3 -2 6 -13 5 -11 0 -14 -3 -6 -6z"/>
<path d="M7235 12083 c5 -18 3 -22 -9 -17 -27 11 -17 -5 13 -21 19 -9 32 -11
36 -5 3 6 2 10 -2 10 -5 0 -16 12 -26 28 -15 23 -17 24 -12 5z"/>
<path d="M11880 12091 c0 -5 5 -13 10 -16 6 -3 10 -2 10 4 0 5 -4 13 -10 16
-5 3 -10 2 -10 -4z"/>
<path d="M12465 11989 c-4 -6 -5 -13 -2 -16 7 -7 27 6 27 18 0 12 -17 12 -25
-2z"/>
<path d="M12130 11902 c0 -6 9 -12 20 -15 29 -7 30 -8 30 -2 0 3 -3 5 -7 6 -5
1 -16 5 -25 10 -11 6 -18 6 -18 1z"/>
<path d="M4991 10914 c0 -11 3 -14 6 -6 3 7 2 16 -1 19 -3 4 -6 -2 -5 -13z"/>
<path d="M4981 9824 c0 -11 3 -14 6 -6 3 7 2 16 -1 19 -3 4 -6 -2 -5 -13z"/>
<path d="M13979 9443 c-13 -16 -12 -17 4 -4 9 7 17 15 17 17 0 8 -8 3 -21 -13z"/>
<path d="M4121 9434 c0 -11 3 -14 6 -6 3 7 2 16 -1 19 -3 4 -6 -2 -5 -13z"/>
<path d="M5030 9253 c0 -5 5 -15 10 -23 8 -12 10 -11 10 8 0 12 -4 22 -10 22
-5 0 -10 -3 -10 -7z"/>
<path d="M16335 8730 c3 -5 11 -10 16 -10 6 0 7 5 4 10 -3 6 -11 10 -16 10 -6
0 -7 -4 -4 -10z"/>
<path d="M16636 8257 c3 -10 9 -15 12 -12 3 3 0 11 -7 18 -10 9 -11 8 -5 -6z"/>
<path d="M15775 5840 c-10 -11 -16 -22 -13 -25 3 -3 13 6 22 20 20 30 16 32
-9 5z"/>
<path d="M8366 3188 c3 -5 10 -6 15 -3 13 9 11 12 -6 12 -8 0 -12 -4 -9 -9z"/>
<path d="M10160 3100 c-18 -12 -2 -12 25 0 13 6 15 9 5 9 -8 0 -22 -4 -30 -9z"/>
</g>
</svg>
